<?xml version="1.0" encoding="UTF-8" standalone="no"?>
<svg height="3180.7585" viewBox="0 0 3180.7585 1912.0426" width="3180.7585" xmlns="http://www.w3.org/2000/svg">
<defs>
<clipPath id="clipPath3469">
<path d="m54.02524,157.18698h494.34542v297.1648h-494.34542v-297.1648z"/>
</clipPath>
</defs>
<g transform="translate(-31.28949,2447.4501)">
<path d="m31.28949-2447.4501h3180.75861v1912.04259h-3180.75861v-1912.04259z" fill="#fff"/>
<g clip-path="url(#clipPath3469)" transform="matrix(6.43428,0,0,6.43428,-316.32419,-3458.8357)">
<path d="m54.94977,158.07646h98.57143v98.57143h-98.57143v-98.57143z" fill="none" stroke="#b0b0b0" stroke-linecap="square" stroke-width=".5"/>
<path d="m54.42549,160.67915 .0017-3.08036h3.28404" fill="none" stroke="#000" stroke-width=".5"/>
<path d="m153.52055,158.07658h98.57143v98.57143h-98.57143v-98.57143z" fill="none" stroke="#b0b0b0" stroke-linecap="square" stroke-width=".5"/>
<path d="m151.60746,157.57031h3.84413-3.84413zm1.94416.1875v2.28033-2.28033z" fill="none" stroke="#000" stroke-width=".5"/>
<path d="m252.00668,158.07658h98.57143v98.57143h-98.57143v-98.57143z" fill="none" stroke="#b0b0b0" stroke-linecap="square" stroke-width=".5"/>
<path d="m250.0936,157.57031h3.84413-3.84413zm1.94416.1875v2.28033-2.28033z" fill="none" stroke="#000" stroke-width=".5"/>
<path d="m350.58121,158.07658h98.57142v98.57143h-98.57142v-98.57143z" fill="none" stroke="#b0b0b0" stroke-linecap="square" stroke-width=".5"/>
<path d="m348.66812,157.57031h3.84413-3.84413zm1.94416.1875v2.28033-2.28033z" fill="none" stroke="#000" stroke-width=".5"/>
<path d="m449.15573,158.07658h98.57143v98.57143h-98.57143v-98.57143z" fill="none" stroke="#b0b0b0" stroke-linecap="square" stroke-width=".5"/>
<path d="m447.24264,157.57031h3.84413-3.84413zm1.94416.1875v2.28033-2.28033z" fill="none" stroke="#000" stroke-width=".5"/>
<path d="m548.21153,160.67915-.002-3.08036h-3.28404" fill="none" stroke="#000" stroke-width=".5"/>
<path d="m54.44638,258.59638v-3.84413 3.84413zm.1875-1.94416h2.28033-2.28033z" fill="none" stroke="#000" stroke-width=".5"/>
<path d="m548.22292,258.59638v-3.84413 3.84413zm-.1875-1.94416h-2.28033 2.28033z" fill="none" stroke="#000" stroke-width=".5"/>
<path d="m448.41406,256.65905h3.125m-2.37083,1.94514v-3.84413 3.84413zm-.1875-1.94416h-2.28033 2.28033z" fill="none" stroke="#000" stroke-width=".5"/>
<path d="m349.81841,256.65905h3.125m-2.37083,1.94514v-3.84413 3.84413zm-.1875-1.94416h-2.28033 2.28033z" fill="none" stroke="#000" stroke-width=".5"/>
<path d="m251.28808,256.65905h3.125m-2.37083,1.94514v-3.84413 3.84413zm-.1875-1.94416h-2.28033 2.28033z" fill="none" stroke="#000" stroke-width=".5"/>
<path d="m152.76858,256.65905h3.125m-2.37083,1.94514v-3.84413 3.84413zm-.1875-1.94416h-2.28033 2.28033z" fill="none" stroke="#000" stroke-width=".5"/>
<g transform="matrix(1,0,0,-1,0,513.46739)">
<path d="m54.94977,158.07646h98.57143v98.57143h-98.57143v-98.57143z" fill="none" stroke="#b0b0b0" stroke-linecap="square" stroke-width=".5"/>
<path d="m153.52055,158.07658h98.57143v98.57143h-98.57143v-98.57143z" fill="none" stroke="#b0b0b0" stroke-linecap="square" stroke-width=".5"/>
<path d="m252.00668,158.07658h98.57143v98.57143h-98.57143v-98.57143z" fill="none" stroke="#b0b0b0" stroke-linecap="square" stroke-width=".5"/>
<path d="m350.58121,158.07658h98.57142v98.57143h-98.57142v-98.57143z" fill="none" stroke="#b0b0b0" stroke-linecap="square" stroke-width=".5"/>
<path d="m449.15573,158.07658h98.57143v98.57143h-98.57143v-98.57143z" fill="none" stroke="#b0b0b0" stroke-linecap="square" stroke-width=".5"/>
<path d="m54.44638,258.59638v-3.84413 3.84413zm.1875-1.94416h2.28033-2.28033z" fill="none" stroke="#000" stroke-width=".5"/>
<path d="m548.22292,258.59638v-3.84413 3.84413zm-.1875-1.94416h-2.28033 2.28033z" fill="none" stroke="#000" stroke-width=".5"/>
<path d="m448.41406,256.65905h3.125m-2.37083,1.94514v-3.84413 3.84413zm-.1875-1.94416h-2.28033 2.28033z" fill="none" stroke="#000" stroke-width=".5"/>
<path d="m349.81841,256.65905h3.125m-2.37083,1.94514v-3.84413 3.84413zm-.1875-1.94416h-2.28033 2.28033z" fill="none" stroke="#000" stroke-width=".5"/>
<path d="m251.28808,256.65905h3.125m-2.37083,1.94514v-3.84413 3.84413zm-.1875-1.94416h-2.28033 2.28033z" fill="none" stroke="#000" stroke-width=".5"/>
<path d="m152.76858,256.65905h3.125m-2.37083,1.94514v-3.84413 3.84413zm-.1875-1.94416h-2.28033 2.28033z" fill="none" stroke="#000" stroke-width=".5"/>
</g>
<g transform="matrix(1,0,0,-1,0,612.043)">
<path d="m54.94977,158.07646h98.57143v98.57143h-98.57143v-98.57143z" fill="none" stroke="#b0b0b0" stroke-linecap="square" stroke-width=".5"/>
<path d="m153.52055,158.07658h98.57143v98.57143h-98.57143v-98.57143z" fill="none" stroke="#b0b0b0" stroke-linecap="square" stroke-width=".5"/>
<path d="m252.00668,158.07658h98.57143v98.57143h-98.57143v-98.57143z" fill="none" stroke="#b0b0b0" stroke-linecap="square" stroke-width=".5"/>
<path d="m350.58121,158.07658h98.57142v98.57143h-98.57142v-98.57143z" fill="none" stroke="#b0b0b0" stroke-linecap="square" stroke-width=".5"/>
<path d="m449.15573,158.07658h98.57143v98.57143h-98.57143v-98.57143z" fill="none" stroke="#b0b0b0" stroke-linecap="square" stroke-width=".5"/>
<path d="m54.44638,258.59638v-3.84413 3.84413zm.1875-1.94416h2.28033-2.28033z" fill="none" stroke="#000" stroke-width=".5"/>
<path d="m548.22292,258.59638v-3.84413 3.84413zm-.1875-1.94416h-2.28033 2.28033z" fill="none" stroke="#000" stroke-width=".5"/>
<path d="m448.41406,256.65905h3.125m-2.37083,1.94514v-3.84413 3.84413zm-.1875-1.94416h-2.28033 2.28033z" fill="none" stroke="#000" stroke-width=".5"/>
<path d="m349.81841,256.65905h3.125m-2.37083,1.94514v-3.84413 3.84413zm-.1875-1.94416h-2.28033 2.28033z" fill="none" stroke="#000" stroke-width=".5"/>
<path d="m251.28808,256.65905h3.125m-2.37083,1.94514v-3.84413 3.84413zm-.1875-1.94416h-2.28033 2.28033z" fill="none" stroke="#000" stroke-width=".5"/>
<path d="m152.76858,256.65905h3.125m-2.37083,1.94514v-3.84413 3.84413zm-.1875-1.94416h-2.28033 2.28033z" fill="none" stroke="#000" stroke-width=".5"/>
</g>
<g transform="matrix(1,0,0,-1,0,710.62879)">
<path d="m54.94977,158.07646h98.57143v98.57143h-98.57143v-98.57143z" fill="none" stroke="#b0b0b0" stroke-linecap="square" stroke-width=".5"/>
<path d="m153.52055,158.07658h98.57143v98.57143h-98.57143v-98.57143z" fill="none" stroke="#b0b0b0" stroke-linecap="square" stroke-width=".5"/>
<path d="m252.00668,158.07658h98.57143v98.57143h-98.57143v-98.57143z" fill="none" stroke="#b0b0b0" stroke-linecap="square" stroke-width=".5"/>
<path d="m350.58121,158.07658h98.57142v98.57143h-98.57142v-98.57143z" fill="none" stroke="#b0b0b0" stroke-linecap="square" stroke-width=".5"/>
<path d="m449.15573,158.07658h98.57143v98.57143h-98.57143v-98.57143z" fill="none" stroke="#b0b0b0" stroke-linecap="square" stroke-width=".5"/>
<path d="m54.44638,258.59638v-3.84413 3.84413zm.1875-1.94416h2.28033-2.28033z" fill="none" stroke="#000" stroke-width=".5"/>
<path d="m548.22292,258.59638v-3.84413 3.84413zm-.1875-1.94416h-2.28033 2.28033z" fill="none" stroke="#000" stroke-width=".5"/>
<path d="m448.41406,256.65905h3.125m-2.37083,1.94514v-3.84413 3.84413zm-.1875-1.94416h-2.28033 2.28033z" fill="none" stroke="#000" stroke-width=".5"/>
<path d="m349.81841,256.65905h3.125m-2.37083,1.94514v-3.84413 3.84413zm-.1875-1.94416h-2.28033 2.28033z" fill="none" stroke="#000" stroke-width=".5"/>
<path d="m251.28808,256.65905h3.125m-2.37083,1.94514v-3.84413 3.84413zm-.1875-1.94416h-2.28033 2.28033z" fill="none" stroke="#000" stroke-width=".5"/>
<path d="m152.76858,256.65905h3.125m-2.37083,1.94514v-3.84413 3.84413zm-.1875-1.94416h-2.28033 2.28033z" fill="none" stroke="#000" stroke-width=".5"/>
</g>
<g transform="matrix(1,0,0,-1,0,809.20575)">
<path d="m54.42549,259.21226 .0017-3.08036h3.28404" fill="none" stroke="#000" stroke-width=".5"/>
<path d="m151.60746,256.10342h3.84413-3.84413zm1.94416.1875v2.28033-2.28033z" fill="none" stroke="#000" stroke-width=".5"/>
<path d="m250.0936,256.10342h3.84413-3.84413zm1.94416.1875v2.28033-2.28033z" fill="none" stroke="#000" stroke-width=".5"/>
<path d="m348.66812,256.10342h3.84413-3.84413zm1.94416.1875v2.28033-2.28033z" fill="none" stroke="#000" stroke-width=".5"/>
<path d="m447.24264,256.10342h3.84413-3.84413zm1.94416.1875v2.28033-2.28033z" fill="none" stroke="#000" stroke-width=".5"/>
<path d="m548.21153,259.21226-.002-3.08036h-3.28404" fill="none" stroke="#000" stroke-width=".5"/>
</g>
</g>
<path d="m1034.4233-2313.759c0,0-11.5223-23.6207-28.8058-17.8595s-17.85961,21.8924-17.85961,21.8924-21.31625-.5762-14.40288,18.4356 13.82675-11.5223 13.82675-11.5223l-2.30442,24.773c0,0 .57614-5.185 3.45669-8.0656s4.03282,15.5551-5.18501,26.5013-1.72836,33.4147 5.7611,66.8294-4.09876,45.2397-7.48946,55.3071c-5.62137,16.6903 0,25.349 5.7611,53.0026s-25.92517,97.3635-25.92517,97.3635l10.94619,15.5552 5.76119-11.5223 5.18505.5761c0,0 12.09843,20.164 8.6417,65.101 0,0 16.99538.2881 22.46838,2.0164s27.6537,1.7284 30.8223-.2881 8.3537-8.9298 4.0328-10.6582-33.1266-5.185-36.2952-15.555-3.4568-23.9088-2.8806-28.8058 21.9032-67.2793 23.5327-138.9773c0,0-.8147-15.4803 3.259-27.7015s4.8885-18.7392 3.259-30.9605 .8148-21.1835.8148-21.1835 21.1835,16.295 21.1835-11.4065 5.9069-36.4601 2.4443-38.7007-4.4811-6.518-4.6849-7.5364-2.0368-1.0184-3.0553-2.6479-2.0369-3.0554-3.0553-2.0369-4.2775,2.6479-4.2775,3.87-.4071,3.8701-.8147,5.0922-1.2221,2.6479-1.0185,4.4812 .6111,10.1843-.4075,11.2028-2.648,2.6479-2.648,3.87-2.8516,2.2406-2.0368,1.0185 1.4257-6.7217-.6111-8.9623-2.8516-5.0922-3.4626-1.4258-1.0185,9.777-1.0185,9.777-24.6462-23.424-25.461-31.1642-.4075-14.0544.6111-14.6655 11.6102,2.0369 14.6655-6.3143 5.2959-8.3512 7.1291-8.9623-2.037-6.7216-1.8332-9.5733 4.6848-16.7024 1.9705-20.1697z" fill="#003466"/>
<path d="m1161.1308-1631.8732c-.5906.061-1.1866.2118-1.8646.5086-5.4242,2.3729-15.2557,0-13.5606,7.4583s6.4413,12.2045 2.0341,14.9166c0,0-6.4414,3.3902-18.6459,3.0512s-43.733-4.7463-59.6667,3.7291-30.8504,23.0531-45.4281,24.0701-30.17239-15.2556-74.24434,20.002-43.05503,21.3579-49.49629,24.4091-1.69501,8.4754-17.28982,10.5095-14.23866,2.712-22.37502,0-22.37497.3391-36.27464,15.9336-43.73299,27.7993-49.15724,28.4774-8.13636-4.4073-11.52656,2.373-2.03406,8.8145-2.03406,8.8145-10.8485-1.6951-12.54356,4.4073 14.57762,22.375 14.57762,29.4942-3.72916,17.2899 8.1364,17.9679 18.98487-.3391 20.34092-1.0171 3.3902-10.1704-1.01705-8.4753c-4.40715,1.6949-8.8144,3.3901-9.49241-.6781s-7.11931-4.7462 2.03406-4.7462 17.62881,5.7632 17.28981,2.0341-3.72915-6.4413-7.79735-8.4754-5.76326-2.0341-4.74621-8.4754 0-15.5947 4.74621-15.9337 39.66483-9.1534 39.66483-9.1534 12.54356,44.411 31.18938,48.4792 4.4073-30.1725 16.95082-38.6479 39.66483-25.0871 44.74999-28.1382 58.31071-18.9848 63.73491-26.1042 12.8826-10.8485 21.019-10.8485 42.038,0 48.4792-6.4413 12.2046-12.8826 17.6289-10.1704 9.1533-1.6952 8.4753,9.1533-2.0341,32.2065-2.0341,36.2747-4.0682,8.1364-3.0511,17.9679 1.356,21.697 2.3731,27.4602 5.7632,18.3069 12.2046,18.3069h6.7802c0,0 0,7.1193.6781,9.1534s-1.6951,11.1875.3391,12.2046 27.7993,1.6951 32.2065,3.7291 10.1705-2.3731 11.5266-2.3731 12.5435-2.7121 7.7973-4.4072-4.7462-3.0512-7.4583-3.3901c-1.8173-2.9268-2.3345-3.264-6.7803-2.3732-2.0342,1.017-14.5777.6781-16.2728-.6779s-8.4753-1.3562-10.5094-2.3732 .339-1.6951.6779-4.7462 3.0512-5.0853 3.0512-5.0853 1.0171-2.0341 5.0852-1.695 12.5437-1.017 12.5437-1.017 2.034-5.0854-5.0854-5.7634-11.8654,1.6951-11.5264-2.373 11.1875-35.9357 10.8485-63.3959 3.0511-33.9016 5.0852-38.9868 4.0681-22.7141.6781-30.5114c0,0 6.4412-2.7122 10.1704-1.017s1.356,5.4242 2.3731,6.7802 10.5095,1.6952 14.5777,1.6952 8.4754.6779 9.8315,1.695 4.7462,1.0171 6.7802-2.0341 4.4073-5.4242 9.4924-6.1023 14.2386-2.034 16.9508-9.1534 9.4925-26.4432.3391-34.5796-21.6969-8.8145-29.8333-8.1363c-7.1193.5932-9.5957-3.9907-13.7301-3.5597zm-57.2935,108.5696c.8898-.413 1.7797,2.2884 1.5255,7.8821-.3391,7.4585-2.3732,21.019-1.6951,31.8676s-2.3732,13.2216-1.6951,21.0188-.6781,19.324-1.017,18.3069c0,0-5.7633,5.7632-5.4243-7.1194s3.7292-31.8674 4.0682-41.3598 2.3731-25.7652 3.3901-29.1553c.2541-.8475.5509-1.3031.8477-1.4409z" fill="#003466"/>
<path d="m241.55388-705.01714c0,0-7.50399,7.24525 18.63059-16.56053s44.24764-48.12899 46.57642-59.51435 3.88146-17.33677 19.40685-28.20458 4.14013-34.67364 1.03506-43.47137-6.7277-23.28827-5.69268-25.87586 .79506-14.25658-.66868-15.9033-7.68475-8.96553-7.68475-4.75718-2.01264,5.85501.36606,6.95279 4.39129,3.29353 4.57424,4.9402 .73187,10.61224-4.57424,10.24636-8.05069-1.64681-8.05069-8.05076 3.29352-9.88034.36611-12.99077-24.88383-7.68478-18.29699-30.73891 26.53059-16.10129 29.45812-16.46726 3.11048-2.19565 5.67206-2.19565 2.37862,1.28079 5.12312,3.6594 6.22093,4.02534 7.86765,3.11047 1.46376-32.38558 6.038-49.03585-.91478-21.22441-3.65927-24.15191-8.59963-7.5018-8.23372-14.6376 6.22099,8.0506 8.78254,6.7699 .91488-8.5996.36607-10.6123-3.29355-13.3567-4.57424-14.2716 2.01268-3.2934 3.47648-.7319 4.57423,10.4293 6.40392,9.5144 1.09781-5.3061 1.28073-8.0506-1.0977-14.4546-1.4637-17.3821 2.01272-6.7699 2.74453-3.8424 1.64669,11.7101 2.56165,13.7227 1.46371,3.6594 1.46371,5.3061 2.01255,2.0127 1.6468-.5489-.18195-19.5777-.18195-19.5777 4.57423-7.6848 4.9402-1.4638-.73195,11.8931-.3662,13.1739-.73195,6.5869 0,7.3187 2.37861-.3662 3.11051-1.4637-.18195-10.0634 1.46375-11.1612 4.39122-1.4637 3.84224,1.0978-1.46362,3.4765-1.09778,5.855-.91477,4.2084.3662,4.5743 1.82977,3.1105 1.4638,5.3061-1.82973,4.2083-1.64676,6.4039 .54907,6.221-.36621,8.7826c-.91477,2.5616-3.65917,5.672-3.84223,9.1485s-.3662,20.1266-.91491,25.24976-1.28079,33.66642-1.09782,36.9599-.36621,19.39472-.73195,25.43274-2.37852,20.30963-2.19552,24.88386-.18195,8.23363 1.28079,10.61224 7.86762,8.59961 10.24614,11.71003 9.88048,7.50173 10.06345,23.60306 1.09769,18.11403 1.09769,22.13936 3.65954,34.03235.54907,43.3638c0,0-4.02611,2.92751-1.28162,4.57423s62.75848,32.75155 63.49024,44.46162 13.90587,14.63754 13.90587,29.27512c0,0-14.63763,6.58691-13.17392,11.71003s-.73195,49.03585 5.12325,53.42715c5.85497,4.39126 18.29694,8.05063 24.15186,9.51442 5.85515,1.46376 13.90564,5.12316 9.51442,6.58687s-8.05066,4.39126-13.90559,2.1957c-5.85501-2.1957-13.90572-8.78257-19.02893-6.58696s-16.83318,4.39126-19.02884,1.46376 1.46376-8.05067 1.46376-19.76074-5.12303-30.00697-8.05076-32.20258-10.97813-24.8839-9.51419-30.73891-40.9851-25.61575-51.96332-30.00706-12.44192-10.24623-21.22462-1.46371-19.02873,16.83323-27.81123,38.78954-30.73897,46.1083-30.73897,46.1083l-21.95632-1.46371c0,0 4.3913-19.76079 7.31875-21.95635s-2.19555-5.85506-2.19555-5.85506-11.71011,15.36948-24.88394,24.8839-13.17383,19.76065-8.78254,25.61571 16.10128,12.44193 8.05071,13.90568-10.24634-2.19565-10.24634-2.19565l-6.58689.7319c0,0-4.3913-5.12312-7.31877-7.31882s-6.58696-6.58686-6.58696-6.58686-2.19554-9.51438 5.85505-13.90568 27.07953-40.25329 28.48159-41.37763z" fill="#003466"/>
<path d="m475.24434-1694.232c-.53364.028-1.26866.1461-2.39112.4393-4.48931,1.1711-5.46524.7808-6.44121,2.3422s-4.09894,2.7327-5.07491,5.2701-2.53746,5.8557-3.70853,7.4172-3.51348,6.2461-4.68463,7.4173 .19481,2.5374-2.34228,3.5134-2.53741,1.9519-6.05084,1.9519-3.12306-2.5375-7.8076,1.9519-4.48936,5.6605-8.00275,6.6364-27.13124,14.8343-36.30519,21.2756-8.97867,7.8075-14.05358,9.174-13.66331,8.5882-20.88526,9.369-20.69006,4.6846-24.39863,8.0028-4.09899,6.4412-5.66047,5.8556-3.31825,2.1471-4.29422-2.5374 2.14708-4.4894-3.31825-5.6605-5.2701,1.1711-4.87973-3.7086-.39055-24.9842-15.02956-25.1795c-14.63918-.1948-14.05358-.1948-15.61516,4.2943 0,0-1.3663-.7808-4.09898-.1949s-4.29415-1.5614-5.85564,1.7568-6.05086,5.4653-6.44122,7.8076-3.90378,7.0268-3.31821,11.9066 2.53741,4.4892 2.34225,8.0026-.97593,6.8317-2.14708,8.0028-2.14713,3.5134.78077,4.2943 3.90378-.3906 4.09894,1.9518-1.36631,3.9038.78077,6.0509-.78077,6.0508 7.22201,4.4893 8.58834-4.6845 11.12575-4.4893c2.53746.1948 5.27015,5.8556 6.63649,7.6123s1.17111,5.6605 1.17111,8.0028-.19481,2.5374-.19481,2.5374-1.17116-1.3663-8.19802-.7807-8.97868-1.5615-12.49211,1.3663-17.56704,1.3663-17.56704,1.3663-56.01931-4.0989-61.28942-5.2701-8.00275-1.3662-15.02957-2.147-10.34502-.5857-17.17667-.5857-7.22199-.5855-11.90653.5857-10.34501,1.7567-11.90655,1.7567-1.36631,4.099 2.34226,4.4894 6.24608-.3901 9.36911,1.171 10.34503,2.3423 13.27286,2.5375c2.92783.1948 7.61239.7808 12.88248-.1948s4.09898.5856 9.36913,1.7567 16.98146,5.0749 45.86947,7.0268c0,0 16.59109,6.2461 23.81305,7.4172s8.78353,4.099 15.02962,3.9039 19.12852.7807 20.69005,1.3662 3.70857,20.8853 26.35055,27.9121 74.95259,34.3533 74.95259,40.5993 1.56158,37.4765 7.80765,60.1184 .7807,34.3533 2.34227,41.3802 .78074,17.1766 0,22.6419-7.02681,49.9684-12.49215,53.0914c0,0-25.76499,12.4922-32.01097,14.0536s-10.93066,4.6846.7807,4.6846 24.98415-5.4653 38.25709-3.123 23.42267,3.123 24.98425,0-6.24612-12.4922 0-11.7114 16.39586.7808 16.39586.7808-2.34228-66.3643-5.46529-89.7871-.7807-41.3801.78079-53.8722-3.90385-44.5032-3.90385-56.9953 3.90385-26.5458-1.56148-27.3265c0,0 18.73817-11.7114 26.54568-24.9842s22.64207-26.5458 28.10731-31.2303 20.29971-15.6151 10.14983-36.6955-11.71131-22.642-14.05358-31.2304-2.34223-16.3959-6.24612-18.7381-10.14974-2.3423-3.12302-7.8076 16.39591-11.9066 15.02956-14.8344-.78069-6.8316-6.24603-7.222c-4.09898-.2931-4.01053-1.1162-5.61172-1.0247zm-29.18079,37.9643c.26788-.086.24399.049-.14611.3418-1.56153,1.1711-.39055,3.5135.39056,5.4654s5.46537,1.5614 5.8557,5.8556 9.36909,33.1822 12.4921,37.086 3.90376,6.2461 1.9519,7.4171-16.00549,14.4441-26.9361,18.7383-30.05917,23.4227-38.64751,24.5938-17.1766,2.3422-20.29966,1.5615-9.36909,3.123-15.22475,2.3423-3.51338-3.9038-3.51338-3.9038-5.85575-8.5883-7.02686-14.8343-1.9519-17.5671-1.9519-17.5671c2.34227-5.075 13.27289-6.6364 18.3478-8.9788s12.88252-10.5401 18.34781-12.1017 5.07491-7.0268 11.71135-10.1498 30.83986-21.8613 36.30515-28.4977c4.09903-4.9773 7.53918-7.1121 8.34436-7.3683z" fill="#003466"/>
<path d="m1628.2551-1715.6094c-11.5748-.018-17.8139,2.3469-25.3574,10.1698-9.6557,10.0133-13.9472,11.8014-14.6624,20.7419s-4.6491,22.8876-4.6491,22.8876l-.7151,7.1523 2.5033,2.1457c0,0 0,4.2915.3575,6.7947s2.8609,11.8015 4.2914,12.5167 4.649-1.0729 5.3643,2.5034 2.1457,7.1523 2.5033,10.0134 1.0729,3.2184 1.0729,6.7946 3.9338,6.0796 1.4304,15.3776-11.4438,20.0266-14.3047,22.8876-5.0067,3.5762-6.7948,4.649-8.2252,3.2186-7.51,3.2186c0,0-6.7947,1.4305-14.3046,1.7881s-8.9406-3.2185-16.0929,3.5762-7.8676,7.51-10.7286,14.3047-12.8743,28.2519-16.4504,41.8414-7.1524,17.8809-9.6557,23.6028-7.1524,17.5233-7.51,20.3843-6.4371,27.8942-1.4305,36.1194 1.0729,11.4438 18.2385,5.7219 45.4176-16.4504 46.848-17.1656 1.7881,8.5828 1.7881,11.0861 .7153,6.7948.7153,6.7948-1.7881,2.1457-.7153,5.0066 0,6.4372 0,6.4372 .3575,1.4305-.3574,4.649c-.7153,3.2186-2.1457,6.0795-4.2914,14.6624s-5.722,6.4371-5.722,11.4438-2.1457,13.5895-1.788,17.1657-2.5033,7.1523-3.2186,10.0133-1.0729,6.4371-1.0729,6.4371-4.649.7152-6.7947,1.0729-6.4372-.7153-10.3709-.3575-5.0067-1.788-7.1524-1.0728-4.2914,0-4.6491,2.1456 4.6491,1.7882 2.5034,3.2187-2.5034,1.0728-6.4372,1.0728-44.7023,6.4371-51.497,18.9538-8.5829,21.457-6.0795,26.8214 6.7947,12.159 9.298,13.5895 6.0796,4.2914 11.4438,6.4371 5.7219,3.9338 11.8014,3.5762 4.6491-1.0729 9.2981-.3575 21.4572,2.1457 30.04.7153 18.9537-3.5762 23.6028-5.0066 34.689-10.0134 42.9142-11.0863 13.2319-3.9338 13.2319-3.9338 7.51-.3574 13.9472,1.7881 20.7419,3.9339 24.6756,4.6491 59.7223,11.8014 69.378,13.9471 21.0995,2.861 28.2519,2.5033 38.6227,6.7948 42.9142,2.1457 6.7948-5.0066 12.8742-7.1523 7.1524,1.7881 10.7286-5.0067 8.5828-13.5895 7.8676-18.2385 3.5762-12.5167-7.1523-20.7419-31.8281-19.669-38.6228-20.7418-9.2981-1.7881-9.2981-3.5763 2.8609-3.2185 1.4305-4.6491 0-3.2184-2.1458-3.5761-7.1523-.3574-11.8014-1.4304-7.1523-1.4305-9.6557-2.861-5.3643-3.2186-12.5166-1.4305-20.7419,9.298-22.8876,6.7948-2.5034-6.7948-5.0067-11.4438-5.0066-12.159-5.0066-15.02-2.861-12.5166-2.1457-15.7352-3.2186-7.51-7.1524-12.159-7.1524-7.8677-5.3643-8.9405 2.5034-2.5033 1.7881-7.1524 .3575-6.0795.3575-11.4438 .7153-10.3709 1.0729-12.8743 1.0728-5.0066 1.0728-5.0066 15.3776,13.2319 49.709,19.3114c0,0 8.9405,2.5033 13.2319,4.2914s6.0795,5.3643 8.5828,3.9338 7.1524-11.0861 8.2253-12.8743-2.1457-20.3842-3.2186-23.9604-10.3709-23.2452-19.3114-42.1989-18.9537-44.7024-22.5299-49.3514-6.0796-14.3048-15.7353-17.5233-17.8809-2.861-22.1723-2.5034-8.2252,1.7882-9.6557-2.1457-6.7948-7.5099-10.0133-8.5828-15.3777-10.3709-15.3777-13.9471-1.7881-14.3048-.7152-15.7352 6.0795-10.0134 6.7948-16.8081 6.7948-5.7219 6.7948-5.7219 2.8609-4.2914 3.5761-6.4372 2.5034-11.0861 3.2186-12.5166 1.7881-4.649-1.0729-7.1524 4.2915-13.9471 2.861-20.0266-9.2981-38.2652-28.6095-39.6957c-4.2244-.3129-7.8788-.5081-11.1197-.514zm71.5572,210.7938c0,1.0729 1.7881,7.51 5.0067,13.5895s8.9404,16.8081 9.6557,20.3842 7.1524,7.51 5.0066,7.51-10.3709-1.0728-17.5233-3.5762-12.8743-3.2185-12.8743-3.2185 .3575-6.0795 1.0729-9.6558 0-9.298 0-12.159 1.4305-2.5033 4.2914-3.5762 5.3643-9.298 5.3643-9.298zm-150.915,8.5829c0,0 5.0066,2.8609 6.4371,5.0066s.3575,8.9405.3575,11.8014 2.1458,9.2981 1.0729,10.7285-2.8609,3.2186-6.7948,3.9339-15.3776,2.1457-15.3776,2.1457l14.3049-33.6161z" fill="#003466" stroke="#000" stroke-width=".35762"/>
<path d="m1792.4149-2127.6057c0,0-20.3508-13.6564-39.0947-17.1374s-25.974-4.5522-28.6517-5.0877-25.1706-7.4976-40.9692-22.4928-30.2581-20.3507-30.2581-20.3507-2.9457-3.7489-5.0878-4.2844-46.86-26.2417-51.1445-28.3839-16.0664-11.5141-38.2914-7.2298-34.5425,9.6398-36.9526,11.2465-4.8198,2.9454-7.7654,6.6942-14.7275,34.8105-16.334,44.9858-1.3389,20.6185-1.6067,23.5639 .8033-1.0711 1.3389,4.8199 1.6065,29.9905 10.7109,49.8057 13.9241,27.3127 13.9241,27.3127-1.3388-1.6066-5.3554-.5355-7.2298,1.8744-10.711,1.8744-4.552.8033-9.9075-.5355-2.4099-3.7488-71.4951,4.0165c0,0-5.8911.8034-10.1755.8034s-5.6231,1.6066-9.9075,1.6066-10.9786.8033-15.5308,1.3388-11.2465,1.3389-12.5852,1.6067-5.6233,5.6232-8.5688,6.1588-10.1753,3.481-12.0498,2.9454-2.6776-1.3388-5.3553,0-3.7488,2.1422-4.82,2.41-2.4099,3.481 2.1421,3.7488 14.4597-1.8744 14.4597-1.8744 2.1423,0 5.3555,1.3389 12.8532-.2679 15.7987-1.3389 4.2844.2678 6.6943.8033 12.5853-1.0711 14.7274-.8033 4.8199-.2679 5.8909-1.0711 1.0711-2.6777 4.82-1.8744 20.3508,2.6777 21.6895,4.0166-15.263,3.2133-21.154,3.2133-6.4265-1.0712-13.9241.5355-7.2298,2.6777-14.4596,2.6777-11.2465.2679-14.4597.5355-4.82-2.9454-8.5688.2679-5.0878,5.0877-7.2298,5.891-14.9953,4.5521-16.8698,5.3555-2.6777,1.8744-1.071,2.4099-.2678,2.6777-.2678,2.6777l1.6065.8034c1.0712.5355 5.6233.2678 7.4976,1.3388s17.6729.5355 20.3508.8033 13.6563-.5355 17.4051-.8033 9.6397,0 10.9787-.8033 5.8908-5.891 11.782-4.5521 19.2796.2679 23.5638,1.8743 43.1115,1.3389 57.0356,0 15.263-.8033 25.9739-1.3388 61.052-2.1422 66.6753-.8033 17.1374.2678 19.5474-1.0711 .2679-1.8744 5.0877-2.6778 8.5687,0 10.9786-.8033 6.1588-1.3388 7.4976-2.1422 2.6776-2.9454 2.6776-2.9454 3.4813-1.8744 6.9622-2.1422 3.7489-.5355 5.0876-.2678 10.4432,4.8198 12.0498,5.3554 4.0167,2.6777 7.2299,1.8744 10.7109-1.0711 14.1919.2678 10.1753.5356 15.7985,0 22.7608,1.3389 24.3673-28.3838-20.3506-31.5971-25.9739-34.2748-9.9075-3.4811-11.782-3.7489-4.0164-1.6066-6.1587-.8033-4.2845,2.4099-6.4265.8033-7.7654-2.9454-10.4431-2.1421-10.9787,2.9454-12.8532,2.6777-2.9454.5355-4.8197,1.071-7.4976,1.6067-9.1044,2.1423-5.6233,2.1421-5.3555,12.5852c0,0 .6026,2.0753-.4685,1.272s-1.6736-.8703-1.6736-1.8075 2.3447-11.9063-3.5251-26.6751-6.2482-7.0057-13.0646-15.5262-13.8221-4.7336-17.7983-6.8164-4.7337-3.4081-6.4378-3.7868-3.9761-1.5148-3.9761-1.5148-3.0296-2.0828-3.5976-3.9762-3.2189-4.3549-3.9761-5.6803 4.5441-1.7041 3.9761-8.7099 .1893,0 .1893,0 3.2187,0 3.2187-3.5974-1.136-4.7336 1.7041-3.2189 11.55,7.0057 13.2541,7.5737 2.4616.7574 4.7337,2.2721 8.8991,4.1656 11.1711,5.491 17.9877,6.059 20.4492,6.8164 6.8164.9467 10.2246,2.2721 7.9524,1.5148 9.8459,2.0828 13.6327,1.5147 15.1473,2.0828 21.2065,4.7336 23.8573,5.8696 4.923,2.6508 7.9525,3.4082 9.0885,1.7042 11.7393,2.0828 7.3844-.1893 8.3311.3786 5.1123,1.8935 10.9818,1.3255 11.5501,1.8934 14.0115,2.8401 7.1951,2.2721 10.0353,3.2188 27.2655,11.9287 49.4186,17.4197 26.3187,9.8458 29.3483,10.6032 21.0171,9.0885 26.5082,16.8516 8.1416,7.763 10.0351,10.9819 1.8935,5.4909 3.9761,6.8163 3.5976,4.923 4.923,5.6804 3.2189,3.4081 6.059,4.7335 9.2779,3.4082 10.7926,3.9762 2.0827.9467 5.6803.5681 3.0296-.9468 5.491-.9468 5.6803-3.0294 2.0828-5.6803-5.1124-2.4614-7.5738-3.9761-1.5147-2.2722-3.4081-4.355-4.3551-2.8401-4.5444-6.0589-1.7041-5.491-2.6508-8.5205-2.6507-7.0057-3.5974-10.7926-.7574-11.3606-.7574-13.8221 .7574-12.8753-6.059-17.6089-6.2483-4.923-10.2246-4.5443-7.195,1.3255-12.3073.7575-21.0172-4.355-27.6442-7.9525-30.863-15.9049-30.2112-15.3618z" fill="#003466"/>
<path d="m2170.2543-1747.0284c-1.0513-.028-1.4547,1.554-1.4547,1.554s.089.4406.089,1.4988-.089,4.2321 0,5.9955 .4411,6.6126.6172,8.376 .2647,5.5546.2647,5.5546-1.3225.3529-1.2343-.088-.9699-6.9653-1.0581-7.6707-.6171-2.5569-.7053-3.0859-.7054-2.9977-.7935-3.4385 .529-3.9676-1.1462-5.0257-2.4688.9699-2.4688.9699 .5291,4.7611.5291,5.4664 .1755,2.6451 1.058,9.6986-1.4989,14.9005-1.4989,14.9005-1.6752.4406-1.4988-.3529-3.1539-7.5568-6.2711-9.6765-4.9843-.2486-4.4855.3744 4.9911,5.1097 6.2379,11.2195 2.613,7.7247 5.3563,11.3407 3.2483,7.8578 3.7471,9.8528-2.2523,26.6853-2.5018,28.5556-4.7329,25.0623-3.3614,33.7906 .3754,13.0922-1.2455,27.4314-7.8578,25.3154-7.8578,25.3154c-.023.046-2.8436,7.7148-3.8134,10.5362s-.6171,11.5501-.9698,13.1371-.7054,4.9374-1.587,10.1394-4.3204,11.7264-4.8493,13.1371-1.0581,3.2622-2.2924,4.8493-1.2343,1.058-3.9675,1.9397-6.0837-1.587-7.1418-2.0279-.5289-4.2321-.5289-8.0233-2.1161-4.3203-2.1161-4.3203-3.7913-.1764-4.6729-.1764-3.1742-.529-3.3504-1.1462-1.9397,0-1.9397,0-.8818.1764-1.1463-.3529-2.2041-.8817-2.2041-.8817-.2647.6172-1.058.9699-2.2924-.088-3.7031-.088-1.3226-.6172-2.9098-1.2344-5.29,2.8214-5.29,2.8214-.7054-.2646-1.1461-.4406-1.9398-.6172-2.9977-.7935-3.2624-.2647-4.144.1764-1.8515,1.4107-2.2042,1.4989-3.615.088-6.1718.1764-7.318,4.8493-9.4341,5.7309-2.3806,1.0581-5.0256,6.6127-2.8213,12.8726-2.3806,18.6917 8.4642,13.4898 8.7287,15.6059 7.0535,3.5267 7.5827,4.7611-4.2323,7.5824-4.673,8.0233-.3528,1.9397-.1755,2.6451-.9698,2.645-1.2343,4.5847-1.058,6.0837-1.4107,7.2299-.3529,7.1416 0,9.2576 2.5568,13.9307 2.8215,15.4296 2.9095,2.4687 1.4987,12.1672c-1.2182,8.3756 2.0281,16.1229 2.7113,17.9203-.436-2.2828-1.3888-13.9276-1.3888-14.5699 0-.7053 1.1463-2.4687 1.4108-.9698s.5289,4.2321.1755,7.0535 .7054,8.9931.7054,8.9931 .3547-6.4438.3859-8.4531c.1815,1.4542 1.0251,4.7501 1.0251,4.7501s.089-2.9096.089-3.2623 1.2342-1.1462 1.146.3529 .7054,3.1741.7054,3.1741 .3529-3.0859.3529-3.7031 1.4989-2.645 1.4107-.6171 1.1463,5.3782 1.1463,5.3782 .4406-4.9374.4406-6.0836 1.1463-.7935 1.3225.6172 .8819,3.7031 1.0581,2.3805 .9698-6.9653.9698-5.8191 3.1742,2.2042 2.8215,1.9397-3.7031-8.4642-2.2044-5.5546 6.9655,5.5546 6.172,5.0256-6.0837-8.2879-3.6149-5.2019 8.376,1.9397 5.5545,1.9397-5.6427-3.6149-5.6427-3.6149-.4283-1.7667-.518-2.094c.1604.43 2.365.7653 2.1049.419s-.5289-.6172-.6171-2.3806-1.0581-18.2509-.5289-11.1974 8.9931,12.2554 6.0836,9.9631-6.4363-17.2811-5.6429-15.6059 3.3504,3.8795 3.3504,3.8795-2.6451-4.3203-2.7331-5.2902-.4411-6.5244-.5291-7.5825c-.068-.8189-1.8626-5.3474-2.3916-6.6347 1.009,1.6384 8.1446,4.7502 6.0947,3.7252-1.4982-.7491-4.1643-4.771-5.3893-6.5796 1.6443,1.5351 5.8302,3.7582 5.8302,3.7582s-2.0279-1.4989-4.9374-4.5848-6.7008-16.0467-6.6128-18.5154 .7054-1.587 1.3225-1.6752 1.2345,1.2344 1.2345,1.587 1.6752-.5289 2.7331-.3528 3.3504.8817 5.202.1764 2.0279-1.3225 11.9027-1.058c9.875.2647 8.8169-9.963 8.8169-9.963s.5291-.2647 1.6752-.3529 2.9095-.8817 3.7913-1.2344c.7714-.3083 5.0579.7949 5.4665.9589 .9089.1084 5.9379.8574 6.6126,1.1572 .7934.3529 2.4686.9698 2.8213,1.7634s-.1755,2.5568.089,3.8794 2.0279,2.2042 2.2043,3.4385 .089,1.6752 1.0579,3.9676-.4407,8.7287-.6171,11.1975 1.4107,15.5176 1.4989,18.6035 5.1137,15.5177 6.4363,17.7219 1.9397,26.4506 1.4988,30.4182-3.0859,14.7241-3.2622,16.3993 .3529,11.9027.3529,13.2253-.7936,22.483-.9699,29.5365-2.9096,7.2298-3.703,8.5523-2.1161,1.5871-4.2323,2.2924-2.8212,1.2343-6.3481.9699-7.8469,2.4687-9.6985,2.3805-3.4386.088-4.4085.4406-3.9675,1.9398-5.2018,2.6451-4.4967,1.8516-6.5246,2.2924-1.1461.4406-1.6752,1.058-1.587.7054-3.3504,1.2344-.3529,1.3225-.3529,1.8515 4.5849.4411 5.9956.088 2.5568-.529 2.5568-.529-1.4107,1.058-3.5268,1.6752-.1755,2.2042 1.5872,2.5569 2.3806-.529 3.9675-.9698 2.2042-.9699 3.174-2.3806 1.7634-.8817 3.6151-1.2344 3.7031-.9698 4.8492-1.2344 4.3202-.088 4.9373-.088-1.146.9699-1.8514,1.2344-1.0581.9698-1.7634,2.4687 1.6752,2.2924 2.7332,2.2042 2.2042-.6172 2.9095-1.4989 9.5223-2.2042 9.9632-2.5568 2.2041-1.0581 3.3504-1.2344 2.4686-.088 5.6428-1.4989 2.9095-2.2042 3.2622-2.9977 1.1462-1.7634 1.3225-2.5569 1.2343-2.7332 2.2041-4.4966 3.6151-14.5478 3.8795-15.3413 2.6451-5.5546 4.144-12.6963 3.7911-22.483 4.5847-24.599 2.0279-8.9051 1.6752-11.9028 .1756-16.4875.2647-17.6337 .2642-9.6104.2642-9.6104 .2647-2.8213.1755-11.9027-1.587-14.8123-1.499-15.694-1.146-4.2321-.7934-6.5245 .6172-2.8214.6172-2.8214 2.9977.529 3.6149.529 5.1138.3529 8.0233.7053 8.0233-1.2343 10.0512-1.058 8.2878-2.8214 9.6985-3.174 1.0581-.8817 2.3806-1.4107 3.1742.1764 5.2019-.2647 .7936-.529 3.7031.1764 5.3783-.4406 5.3783-.4406c11.1974-4.0557 19.9261,4.3203 23.8055,9.4341s7.0535,4.2321 9.8749,5.9954 9.6986,12.5199 10.2275,14.4596 5.1138,2.2924 7.5826,5.2902 2.9977-2.4688 10.4039,4.9374 34.033,13.4016 37.3834,14.2833 6.7008.8817 11.2855,3.3504 6.8773,2.6451 13.7543,4.7611 9.6986,3.5268 16.752,5.1138 20.6756,11.7264 20.6756,11.7264 5.8632,4.144 17.0607,11.9909 44.3487,14.2834 46.9939,15.1651 9.963,2.5568 13.7543,3.6148 15.694,6.7009 18.0745,8.1115 6.5244,7.6707 7.4063,9.7867 2.2041,2.0279 3.0857,3.086 4.4084.088 5.8192.529 3.6149-.9699 5.4665-1.9398 2.645-1.5869 3.7911-2.8213 4.144-2.116 5.3783-2.7333 3.0859-4.4965 3.6151-4.9374 .8816-1.4107 2.3803-3.2622 .2647-2.5569.7054-3.2623 .6171.6172 1.8517.8817 2.9095-.3529 3.9675-.2646 .8816-.1765 1.058-5.1138-4.3202-5.5547-6.4363-5.9955-4.9374-2.0279-4.9374-2.0279c-7.4944-4.8493-18.6919-12.2554-19.309-12.6081s-2.3806-.8817-4.7609-2.2042-4.8494-2.8214-7.23-3.6149-15.9584-13.578-18.8681-16.0467-23.4529-20.3669-25.657-22.2185-6.3481-5.4664-13.9306-8.8168-22.2185-12.9608-23.7174-13.8425-7.8469-5.4664-8.9932-6.4363-2.8213-2.3805-5.3783-4.9374-25.3043-24.8636-32.2697-31.0354-23.7174-17.1928-24.1581-17.4574-.6173-1.4107-2.0279-2.116-1.8516.4406-1.8516.4406c-3.6149-2.2042-21.9539-8.1996-22.9237-8.5523s-2.9979-.8817-3.086-1.3225-.7053-.1765-3.6148-1.1462-11.1093-1.587-11.1093-1.587-10.0512,1.8515-20.3671,2.7332-29.6245-11.7265-30.947-12.3436-8.8169-5.0256-10.3157-5.6428-3.3504-1.7634-4.2322-2.6451-26.0097-6.5245-28.6547-7.4061c-2.645-.8817-6.5246-2.6451-10.5804-5.5546s-.5289-13.578.2647-16.9284 3.4384-19.6616 3.7029-20.9841 .4411-16.223.4411-18.4273 .6171-9.1695 1.0581-10.9329 .9698-3.1741.9698-3.1741c3.086-5.29 1.3225-10.1393 1.3225-10.9328s-.7934-9.7867-.7054-12.0792-.7053-24.07-.7933-25.7452-.6174-24.4226-.6174-25.8333 .3529-2.0279 3.0859-7.6707 2.5571-15.8704 2.5571-16.223-.089-.6172.089-1.4107 1.058-4.1439 1.1463-4.8493 .9698-4.9374 1.1462-6.6127-.7054-2.116-1.6752-2.4686-1.4989,1.8515-1.5872,2.645 .1756,3.2622-.4406,4.5848-1.3225,4.3202-1.8516,5.4664-.2647,1.1462-1.9397,1.1462-.9698-2.0279-.9698-2.0279v-1.7633c0-.6172-.1756-6.7008.089-8.0234s-.6173-5.1138-.7053-8.0233-1.1463-3.0859-2.1162-3.3504-1.4107,1.058-1.4107,1.6752 .4411,5.4664.2647,8.1997-.2647,8.6405-.2647,8.6405-.7934.2646-1.2343-.4407-.7936-7.9352-.8818-8.5523-.5289-6.3482-.6171-9.6104 0-3.1741-1.6752-4.3203c-.3143-.215-.595-.3138-.8377-.3198zm-41.1305,254.234c-.1604-.018-.2334-.014-.089.014 .1218.023.1466.014.089-.014zm-49.7492,86.8791c.041.2242.079.3951.1103.419 .048.037 0-.135-.1103-.419zm255.7329-39.1358c0,0 20.6993,7.9868 30.1757,14.4707s14.9648,10.7165 18.2068,10.9659 6.2374.5053 10.2276,3.7472 13.2149,14.2129 19.9482,15.9585 8.7333,4.7373 15.716,7.9793 14.2083,10.4754 19.6947,11.4729 13.4661,6.727 14.7131,6.9763 2.7466-.2453 6.2379,2.2483 5.9829,2.4975 7.2298,4.2432 .4963,3.9842-1.4988,2.9866-1.7395-3.2429-6.9765-2.7442-13.7222-4.4825-16.4653-6.9763-28.9283-15.2156-36.1601-18.9563-21.4441-8.9804-23.938-12.2223-3.738-6.2347-11.2193-10.7236-12.7153-5.4772-15.209-7.4722-25.9446-15.969-30.6828-21.954z" fill="#003466"/>
<path d="m317.01696-2334.9169c0,0 1.4026-7.0127-4.4881-12.9033s-7.5737-9.8177-4.2076-16.5499 3.6466-18.5135 3.6466-21.3186 .8415-4.4881 1.4025-5.6101-.6311-5.7504 1.4025-5.4699 2.0338.6311 2.0338.6311-.2104-.9116-.1406-2.1739 .7714-4.3479 2.0336-3.5064 1.5428,2.1038 2.0338,3.857-.7714,3.4362.9115,2.8051 2.1039-1.122 2.2442-3.0856-2.0338-2.6648-1.2624-4.0673 1.1922-1.4727 2.3843-1.7532 1.4027-.4909 1.4027-.4909 .7012-3.5764 3.5764-2.8051 1.6129,1.8935 1.3325,3.7869-.7715,3.2258-.6313,5.1192-.9818,4.7687-.2105,6.2413-.2104,1.1221 1.1221,3.0856-.9117,3.9271-.4908,6.8724 1.3323,19.0745 1.1922,20.8978-.2808,15.7084-.4209,18.7238 .9819,15.2877 1.7532,18.6538 1.6831,5.9607 2.2441,8.9762 9.8178,34.5023 9.8879,38.9203 .7713,5.7504 1.9635,7.6438 6.9426,16.55 8.0645,22.5809 4.2778,14.4461 4.2077,16.9706 2.1039,16.3396 2.1039,19.2148 3.5764,20.9679 4.3478,24.4742 3.7868,17.4616 3.7167,22.2302-.3505,6.5919-.2104,7.2932 0,2.1038.3506,2.9453 2.6648,1.9636 3.6466,2.735 12.8331,11.3605 16.2694,14.4461 17.6719,21.2484 19.5653,23.7028 13.3241,16.7603 14.306,17.672 11.5007,19.0043 12.6928,20.6874 6.3114,10.8696 8.3452,13.5344 6.8724,9.3269 13.3239,13.5345 8.0648,5.4699 8.3452,5.6101 17.1109,16.3396 20.8978,21.529 7.9944,11.3605 9.8879,14.4461 18.5836,27.9104 20.4069,29.1727 3.366,4.1375 4.2076,5.2595 9.7475,8.5555 9.1165,14.1656-4.5582,6.5219-5.2596,6.7322-17.1109,2.1038-18.5836,2.1739-5.049-.3506-7.0126-.1406-6.592,1.1922-7.0829,1.1922-18.8641,1.6129-21.9496,1.9636-6.3815-.5611-7.2231-.7013-2.5946-.7714-2.2439-1.122-.2105-2.2441 1.3323-2.735 2.6648.1406 3.2259.1406 3.5063.3506 5.2594.07 7.3634-1.1921 7.9944-1.683 4.5582-2.174 5.2596-2.9453 5.6102-4.5583 7.5738-5.7504 4.7685-2.8752 5.4698-4.979 2.5947-4.9089-.6312-9.5373-15.4278-17.3914-26.2976-25.6663c-10.8696-8.275-21.038-20.5472-21.038-20.5472s-5.4698-6.8023-10.9398-10.3788-6.2413-5.0491-8.0646-6.1711-15.9888-14.3059-19.2848-17.1811-6.0309-4.6284-6.662-4.979-15.9888-7.3633-23.0718-15.9188-7.223-9.1164-9.3267-9.467-3.2961-1.052-3.1558-.1406 3.1558,12.9734 3.4362,14.0253 .491,4.9089.7013,5.2595-.7013,2.8051-.2807,3.0155 3.5063,7.784 3.7869,8.2048-.9117.561-1.4727-.7012-1.683-3.6466-1.8935-4.2778-.7011-1.2623-.7011-.7012 .9817,3.9972.9817,4.4179 .6311,2.3844.3506,2.735-1.1221,1.122-1.4025-.561-.5611-4.5583-.5611-5.4699 .07-2.1038-.1406-3.296-.1406-1.4025-.7714-2.5947-3.2959-8.7658-3.2959-10.0281-.6312-2.8752-1.1219-3.2959-.2105,2.805-1.6131,2.7349-2.5946-.3506-3.0855-2.2441-.2803-3.1557-1.5428-.3506-4.9791,11.01-5.8205,12.8332-3.7168,8.7659-11.2904,14.6565-8.7659,7.0127-9.2569,7.9945-2.3842,1.2622-1.8232,1.9635 1.4727,2.3142.07,2.3142-2.3142.07-2.174,1.5428 .8415,1.6129.5609,2.3843 1.8935,20.1965 1.7533,20.7575-1.5429.7714-1.4727-.561 .1402-2.8752.1402-4.0674-.6312-12.2722-1.7531-12.0618-7.714,5.2596-8.6958,5.5401-.3506,2.3843-.1406,2.805-.9115,2.5947-1.1921,1.6129 .07-1.122.1406-2.4544-.9817-1.7531-1.683-1.4727-11.5008,4.5583-14.7967,4.9791-5.6803,1.5427-8.0646,1.5427-11.7112.7013-12.693.7013-1.4726-.4209-2.1037.2807-2.8052.6311-1.8234,2.3142 3.0856,2.5246 3.3661,3.7868 4.979,4.6284-.4209,8.5555c0,0-.6312-.07-1.1219,2.1038s-.7014,1.9635-.9818,2.7349-.3506,2.5246-.3506,2.5246-2.1039,1.052-1.6129,2.3843 1.3323,1.122 1.6129,1.8935 2.805,2.8751-1.8935,3.9972-5.8906,1.8934-6.4517,3.0855-.561,2.0337-1.122,3.7869-1.3323,2.1038-2.0337,2.8051-6.4517,6.4516-6.4517,7.5736 1.5429,3.9973 1.7532,4.7687 1.8233,3.7167 1.8233,3.7167-.9818,2.2441-2.5245,2.8752-4.9791.3506-4.4881,1.6129-.4209,1.122-.2105,1.5428-3.1556-1.122-4.1374-1.8233-.5611-2.0337-2.6649-1.1921-2.8753.7713-3.296-.7013-2.805-2.0337-3.5064-1.7532-1.6129-.561-3.1557-1.7532 .3506,2.4545-2.6647,1.5428-1.8935-2.6648-4.2778-3.6466-3.7867.7013-5.9608-.7713-2.244-1.5428-4.1375-1.4026-1.8933.4909-2.8751.9116-20.4069,11.8515-23.3522,12.6229-4.418,1.0519-5.1192,2.244-2.0338,2.0337-2.174,3.0155 1.122,2.1739-3.2259,1.6129-4.7685-.2807-6.5919.2104-8.9762,2.244-10.5891,3.7167-2.0337,2.4545-4.1376,2.9454-4.2775,1.1921-7.6438.7713-4.488.2105-6.7321.1406-22.5968-1.2745-24.0843-1.2745 .6942-1.686.8925-2.0827-3.8678-.8925-4.8596-.7934-3.7686-.3965-4.7604-.4959-1.4875-1.2893-1.4875-1.2893 1.7851-.7933 4.9587-.595 5.8513,0 7.3389,0 6.4463-.595 8.1323-.9917 4.562-1.3885 5.8512-1.686 1.4877-.9917 3.8678-1.4876 4.5621-1.5868 6.6447-1.7851 4.3636-.9918 7.0413-.4959 3.1737.6942 5.2563-.6942 47.4053-27.0746 48.1987-32.6283 1.9834-6.3472.3965-7.9339 0,0 1.5867-4.7604 1.5868-9.1241 3.5703-11.1075 1.9835-3.5703 7.1406-5.9505 10.3142-5.9505 12.6942-7.5372 6.7439-3.1736 6.7439-3.1736-3.1735-1.1901-2.7769-5.1571 5.9505-10.7108 8.7275-15.8679 1.19-4.3636 2.7767-8.3305-1.1901-7.5373 3.5703-10.7109 8.3306-4.3636 10.7109-6.7439 17.0579-16.2645 22.6116-22.2149 9.5208-9.1241 13.4878-21.025 3.9669-13.8844 3.9669-15.8679-.7934-10.7108 3.1736-18.2481 9.9175-13.8844 11.5041-17.4546 4.3638-18.2481 4.7604-30.5456 1.5868-28.1656 1.9836-35.3061-.7934-13.8844-7.5372-31.339-6.3472-48.0004-5.9506-51.9674 .397-20.6282-.6325-20.2875z" fill="#003466"/>
<path d="m2219.085-1067.5984c-2.4779.2073-4.3246,4.1542-11.5238,5.5941-8.8605,1.7721-15.1917,9.1124-18.4827,12.1503s-4.0501,4.5406-4.0501,7.8316 1.253,4.0501 1.253,4.0501-.9998,3.5618-1.253,5.8403-1.7831,6.0749-2.0362,8.1001-.2532,4.8021 0,8.3463 2.5452-.7537 3.5578-1.0068 1.0069,12.4016 1.0069,15.4395-1.7664,6.83967-1.0069,11.1434 2.5337,21.50441 5.5717,26.31444 4.2905-2.51665 5.3031,4.31857-10.8744,11.64666-14.9249,13.6719-13.417,3.53677-16.9612,4.29624-3.7996,0-5.5717,0-4.2989,1.00694-5.8178,1.00694-8.1116.50285-18.9974,6.57864-11.3908,17.73689-12.1503,22.04057-7.0906,17.1981-5.5717,24.79288 1.5312,30.38998 2.7971,40.76946-.52,34.94068-3.5579,45.8265-8.1015,38.46257-8.861,45.80413-3.0304,49.87578-4.2962,57.97685-1.014,9.62837-.7608,13.42571-.01,7.84532.2458,11.38949c.2532,3.54427-1.7787,4.04445-3.804,5.05705s-4.538,1.0306-6.3101,1.79011-13.4283-.26833-14.9473-.26833-1.5159,2.0222-2.5285,2.52854-3.0278,1.02491-2.7747,2.79697 3.0177-.51897 5.5494,1.25309 4.5774,2.04457 3.3116,2.55092-7.36-1.27151-10.6511,1.00694 5.3212,3.53539 7.0933,3.53539 5.8205.25317 7.3394,0 6.598-1.0012 9.1295-2.01383 6.0693.23663 9.1072-1.02932 11.6312-1.7677 13.4033-1.7677 2.2806-2.5228 5.5717-3.53549 5.0763.50635 7.6079,0 9.1071,2.77469 9.1071,2.77469 5.8214,1.52468 12.1503-1.00694 2.2701-3.28227-.5146-3.53544-4.0471-.009-6.5786-1.27546-8.0959-3.55208-9.8679-4.56472-7.3395-13.40338-7.3395-13.40338 0-5.56425.7608-9.86794-.01-10.88972-.5146-15.19341c-.5063-4.30373 21.0266-58.48006 21.2798-60.50534s5.0666-15.95779 6.3324-22.28671-.5063-11.39129 0-21.0113 1.7677-32.9154 1.7677-32.9154 2.5146,8.87193 3.0209,10.89721 1.5312,4.04702 2.797,6.5786 2.5215,26.07096 2.7747,27.58989-.2477,5.07763-1.007,8.36872 1.0056,6.05957.2458,7.83168-.4922,3.04315-.4922,3.04315 1.5048,2.52676.4922,5.8178 1.0223,4.81357 1.2755,6.3325-.7652,8.61394 1.0069,16.71506 .7691,22.01511 1.2755,24.54669 1.2587,5.31986.2462,6.3325-.5089,7.3473-1.5216,11.90411 3.8123,3.27795 4.3187,5.30318 .4949,3.80354 2.0138,7.85406 1.021,5.05663.5147,9.10714 3.2836,5.06099 4.2962,7.3394 0,8.36522 1.5216,14.94735 4.8192,9.61739 5.3255,11.3895 4.5354,1.01043 17.6996,7.33935 45.8327,4.31866 53.6806,4.31866 10.6388-1.02233 20.7651-1.27546 11.8937-1.01833 18.7289,1.00695 32.4008-4.8109 32.4008-4.8109 2.5228-2.77772 3.5355-.24582 1.0166,3.53236 2.2824,6.06398 6.0859.76779 10.1364.51466 6.325.50322 10.6287,2.5285 11.6352-3.52846 15.6857-3.78158 7.0898-3.04886 13.6719-2.03626 14.438,1.78313 17.4758,2.03626 10.3905-3.29762 14.9473-3.80396 6.3124-.25455 11.8818-.7608 2.0407-3.79826.2684-4.81086-4.5547-1.02233-7.3394-1.2755-4.8289-3.29059-6.6011-4.05006-11.3938-4.54238-9.6217-4.54238 5.5813-2.28369 6.8471-3.04315 14.1725-15.69544 14.6788-16.9612 1.7857-2.28631 3.5578-4.56476 1.7717-5.04822 4.0501-8.59248-2.292-13.42401-3.5578-16.71501-2.5215-6.08898-2.7746-7.60791-6.0776-4.80346-9.6219-9.10719-22.7789-4.81085-22.7789-4.81085l-.7608-1.25309c0,0-.7788-5.31674-2.5509-8.861s1.5286-23.29452 1.2754-28.1045-3.8039-16.70366-3.8039-18.72894-.2376-8.36959.2683-13.17957 1.5106-5.06361-.5146-8.861-3.535-12.91023-7.5855-21.0113-1.7788-9.61431-3.804-13.91799-4.0624-5.57694-6.8472-8.61486-9.3756-5.57165-10.2706-5.70591c-.8951-.13417-2.1481-1.20833-2.1481-1.20833s-.1346-1.61111-.046-3.80396-.5818-7.3394-.716-9.75601-2.2824-11.0539-2.5062-13.91804-2.1928-8.90576-2.3718-9.53225-.716-4.4753-1.0741-5.41507-.5818-.8503-.8055-2.68513-1.5216-8.72674-1.9692-10.96439-.5817-6.62335-.6265-7.92118c-.046-1.29779-.046-12.57545-.046-13.78374s.403-5.23605.6713-5.9521-.5818-1.20828-1.4321-3.89346-.9846-7.20514-.716-9.21898 1.2978-9.57705 1.5216-10.65112 .537-4.20673.716-4.78848 .6713-2.23765.8055-3.98297-.2238-5.05704 0-5.81784 .5818-4.60946.6266-4.87803c.046-.26833-.09-2.01384 0-2.90889s-.1792-3.62495 0-5.19126 .537-4.16203.4922-4.83332c-.046-.6713 0-1.83487-.1341-3.26687s-.8056-2.5509-1.2979-2.8642-.8055-.089-1.2083-.4475-.3133-5.3702-.2683-5.7283-.046-1.5663-.046-1.5663-.358-.8951-.403-1.2531 .089-1.7901-.2238-2.1481-.716-.8951-.8503-1.7006-.089-1.2978-.4922-1.8348-.5818-.358-.3579-.8504-.1342-1.8348-.3134-2.3718-1.2978-.3134-2.3719-.4923-1.2978.7608-1.7453,1.5216-1.7006,3.6249-1.7006,3.6249-.537-.8056-1.1636-2.1481-3.3116.9846-3.3116.9846-2.1482,2.8642-2.3272,3.8487-1.7006,3.3117-1.6111,4.3857-1.5216,6.4444-1.5216,7.3394-.2683,3.5802-.6265,5.28083-.9846,2.1481-1.0741,4.11718 .358,4.38575-.1792,6.17587-2.1481,10.20359-2.1481,12.17267-1.9691,2.50612-1.9691,1.07408-1.074-10.02458-2.3271-15.03687-4.6542-4.65422-7.5184-5.01224-.895,5.37026-.895,7.87643 1.969,8.05545 2.3271,10.91959 .716,6.44434.716,6.44434-.3579,4.65426.5371,8.2345 2.8641,9.12947 3.5801,10.56152 2.8642,2.86419 3.5802,4.29624 2.5062,5.54933 3.4012,8.41347c.895,2.86419 1.2531,8.23446 1.7901,10.20354s.358,21.12318 0,26.13547-2.1481,16.64793-2.1481,16.64793-.716-.89506-1.4321-2.32716-3.0432-9.84552-5.9073-17.0059-2.1481-5.1913-11.6357-18.61701-26.3144-11.27766-26.3144-11.27766-4.6542-1.79008-12.5307-1.25304-15.2158-5.01229-20.4071-7.33944-5.0123-20.76516-5.0123-20.76516c-.6559-2.30156 3.4039-14.45898 4.9228-16.73738s4.5406-4.81881 7.8317-9.37566 4.047-4.79772 6.5786-10.11404 1.2715-5.3211-1.007-7.0933 .014-4.5476-.4922-7.5855-.7762-2.0428-1.0293-5.8402 .2642-1.7603 2.0362-6.0639-1.2781-5.5674-2.797-7.3394-.2403-4.3016-1.2531-7.3395-2.7983-8.8636-3.5578-10.3825-5.061-3.0318-7.3394-5.0571-6.0776-5.8402-9.6218-5.8402-6.0776-2.5298-9.6218-3.2893-3.542,1.5176-7.3394-.7608c-.712-.4273-1.3077-.5624-1.8796-.5146zm73.4612,200.64764c1.0454.0855.5504,2.84609 1.5887,4.92279 1.2658,2.53157 8.3656,14.94115 10.8972,20.00435s5.3032,3.55782 5.3032,3.55782-6.0736,4.54366-7.3394,5.30318-18.979,18.47701-21.2574,19.48969-17.4759,16.46892-17.4759,16.46892-1.5172-.24858-3.2893-1.76775 0-2.54912.7608-5.84017 3.0375-5.55461 4.0501-8.59252 5.0693-8.86757 7.854-12.66492 4.3046-9.61035 4.8109-11.63563 .2335-4.30984 1.4993-7.85406 1.78-.75772 4.5647-3.28934 2.7926-5.06095 4.5647-7.33936 .2505-8.86366 2.5285-10.3826c.2849-.19022.5233-.31474.7161-.35793 .085-.0184.1539-.0276.2238-.023zm28.5297,131.54988c.3478-.009.6642.20952.9174.716 1.0126,2.02528 3.2836,4.81619 4.2962,7.85406s-7.0959,3.5438-8.6148,4.0501-5.8095.51466-5.3032.51466c0,0 4.5591-4.82446 5.5717-8.36872 .7595-2.65811 2.0884-4.74239 3.1327-4.7661z" fill="#003466"/>
<path d="m850.98733-978.8112c0,0 1.63689-12.76797 12.76793-18.98823s16.36912-7.52977 25.53585-11.78577 16.36916-6.5477 18.98827-9.1668 18.33337-11.7857 31.42868-10.8035 33.72045-.3272 43.21456,0 18.66078-.3272 25.86318,1.3095 22.5895,8.8393 37.6491,9.1667 14.0774,4.5833 14.0774,4.5833 4.9108-6.5476 8.1846-3.2738 7.8572,7.2024 7.8572,7.2024 6.8751,5.2382 7.2025,6.5477 21.6072,24.88112 27.5001,29.13706 39.2859,39.28596 52.3813,62.53017 28.4822,50.41695 29.7918,53.36338 9.1667,6.2203-.3272,29.79184-14.7322,33.06566-15.0596,38.30382-1.3096,50.41695-1.6369,55.00027-1.637,51.7265-1.637,51.7265-5.238,8.18456-7.5297,8.83931 5.2381,2.94649 8.8393,4.91079 7.2024,3.60119 11.131,5.23812 5.5655,2.94644 8.512,2.94644 5.2381.32761 5.2381,1.63693v5.5655l-.9821,2.94643c0,0 .3271,4.256-2.2917,3.92857s-1.3096,1.96431-5.8929,1.63693-1.6369.98218-8.1846.98218-14.4049,3.60124-23.5716.98213-12.1131-2.94644-23.8989-4.58337-23.899-2.29168-25.8632-4.25594-6.5477-.32715-6.5477-7.52985 .6547-8.51194 1.6369-12.44055-.3276-7.20238.9821-7.85718 1.9644-3.60119 2.2917-7.52976 .6548-25.5359.6548-25.5359-3.6013-.98213-6.8751-.32714-15.387,3.60123-18.3334,3.27386-11.131-2.29169-9.8215-8.18456 1.9643-8.18461 1.9643-9.49411 1.3096-8.18461 1.9643-12.76797 1.637-36.99422 2.2917-41.57759 2.2917-37.32165 2.6191-41.25021 2.2916-8.51203 3.6012-11.13109-.6548-3.27382 1.3095-8.83931 3.2738-5.23808 7.2025-10.14887 3.9285-5.89287 2.2916-11.13104-2.2916-1.96426 0-6.22025-2.619-3.60119-5.5655-6.22025-18.6608-19.64298-23.8989-25.20847-5.5656-.98218-8.8394-1.96436-4.9107-1.3095-10.4762-2.29168-9.1668-2.29164-9.1668-2.29164-6.875-2.94644-9.1667.98213-2.9464,7.20243-7.8571,4.58337-9.1668-4.91074-10.4763-6.2203-15.71437-11.13095-16.36912-16.04169 2.94643-6.8751-1.63693-8.8394-9.16674-5.89288-9.16674-5.89288-.65475-3.60119-4.58332-.98213-5.89287,4.91075-7.5298,4.25595-5.89292,2.29168-5.89292,2.29168-1.96431-.98213-4.25599.32761-2.94644,5.89292-4.25599,6.22029-4.25595,3.27382-4.25595,3.27382-3.27381,2.29168-6.22025,2.94643-6.2203,1.30956-7.20247,3.60119-3.27382,2.61911-3.27382,2.61911l-4.58336,6.87505c0,0-3.92857,1.96426-3.92857,3.92857s-.32715,2.94644-.32715,4.58337 6.2203,8.51193 0,12.76797-13.75005,4.25594-13.75005,5.56545 3.60119,3.60124 5.89287,4.58337 10.96733,1.9643 12.76793,4.25594-1.1458-1.80055-8.83936-1.47317 3.92861.98213 6.54772,3.1101-3.43757-1.14584-6.54772-.49104 5.23816,1.96426 7.52985,4.25594 2.12797,1.63693-1.14584,1.30956 .49108,3.27386 1.80059,3.7649-.81842-.65476-3.7649-.32715 .98213,1.47317 1.96431,2.45535 1.47321,3.92861 3.27381,6.71139 .98218,4.74703 2.61906,6.38391 4.58337,9.98516 4.74708,15.38703-.81847,8.83931-.6548,10.14882-.49104,4.4197 0,5.07446-.32761,3.60119 1.96431,5.07445 4.58336,4.09228 4.58336,4.09228-2.45539-1.63693-5.23812-1.14584-.49109.49104 0,1.8006 3.76486,3.60123-.81846,3.43752-9.3304-1.47322-9.3304-1.47322 .49109.98213-.81847,2.78277 .6548,1.63689 3.11015,1.63689 0,1.47322-3.27381,2.94644-4.74708,1.80064-2.78282,2.45534 7.52985,1.14589 7.52985,1.14589-4.09228.98213-6.71139.98213-6.05653-1.3095-4.91074-.49109 4.25599,3.11015 1.30955,3.27386-5.7292-2.45539-5.7292-1.14584 0,2.45535.98213,3.7649 .49108,2.61906-2.78273,1.80055-6.05659-2.94643-4.58337-.49104 .49109,1.96431-2.45535.98213-3.7649-2.78272-4.74707-.65475 .49108,4.58341 2.6191,5.89292-3.27386-.49109-6.2203-2.94644-5.07445-.49109-3.92861.16358 6.22025,5.56549 2.94644,4.58336-5.72917-1.14584-4.74703-.49109 1.47321,6.71134-.65476,4.25599-3.60124-3.27386-5.23812-3.43752-6.38396.65475-10.31258-.98213-5.89287-4.4197-8.83931-7.85718-4.25603-5.56555-5.07445-6.71139-1.96431-.32714-1.96431,1.47322-1.80059,15.38703-1.80059,15.38703-1.30956,5.23808-1.47322,7.85714-1.63689,15.38703-1.8006,17.02396 .16358,5.40178.16358,5.40178 1.9643,2.45535 1.14584,3.27382-1.8006,3.60124-.81847,5.07445 2.61906,4.25599 2.29169,5.23812-1.47322,3.11015.32714,4.58337 0,3.43753 3.7649,3.92861 7.20243,0 9.00303,0 6.22025.49105 8.18456,1.1458 8.51202.6548 11.9495.6548 6.38396-.49109 6.71134.65475 .16357,2.94644-.98213,2.94644 6.71134,2.94644 9.16669,2.94644 3.60124.6548 4.4197,1.47326 4.4197,1.8006 1.47322,3.60119 .32761,4.74704-3.27381,4.4197-15.22332-.49108-20.29773-.49108-7.03877-.6548-8.6757-.81847-7.20238-.98217-6.38396-.65475 4.09228,3.43748 4.25599,5.40178-.16357,6.05659-3.43752,4.58337-5.89288-2.78277-8.67565-4.41965-5.07441-1.80065-8.02089-2.94644-10.80362-.81847-11.94946-3.43753-1.30951,2.61906-1.30951,4.09228 2.45535,3.1101 1.30951,4.25599-3.60119.98213-2.61906,3.76486 2.12802,7.69351 1.9643,8.67569-1.80059,6.54763-.98217,7.36609 1.80064,2.61906 3.60123,1.96431 .81847-2.12802 3.76491-1.47322 5.23812.32715 7.69351.16358 1.30956-1.80065 4.58337-.16358 5.72916.32715 6.71134,1.14584 1.14579.65476.65475,2.94644-1.47322,3.43748-.32714,3.60119 5.23812-.65475 9.33035-.32715 4.74708.32715 8.34827,1.14585 15.5507,2.45534 16.53287,3.27381-1.14584,4.09228-1.80059,4.09228 3.43748,1.63688 5.23807,2.45535 6.05659,2.78277 1.47322,4.09228-6.05654-.32715-5.07441,1.30955 3.92861,4.4197-1.8006,4.4197-7.36609.32761-11.62212-.49109-7.20239-2.45539-10.96729-1.9643-5.07441,0-5.07441,0 2.61902,2.78277 4.74699,3.60123 7.36614,2.29169 8.34827,3.27382 .32715,5.23812-4.41966,3.7649-13.58639-5.07441-16.69654-5.72921-3.43752-.81846-7.20242-1.47322-27.00907,3.11015-33.88412-5.07445-9.98516-6.87505-9.49411-9.98516-.32715-14.24119.16357-17.515-1.47322-6.71134-.65475-8.83931-.32715-1.63693-.16358-5.23812-1.47322-4.58337-1.14584-8.67565-2.94644-8.1846-2.45535-11.45842 .32715-5.07441.16358-7.36609-2.29164-14.89594-.98214-15.71441 1.30956.32715 1.8006-3.43752-1.30955-24.55368 4.74708-37.81273 6.05658-22.42571 7.03871-25.04477 5.40184-14.89589 4.58337-15.22327-5.72921.16357-6.54767-1.8006 0-6.22034-.65476-7.69356-.81841-2.94643-.98213-4.74703-1.80059.16357-3.60119-2.12797-3.2739-5.72917-3.92866-6.54763-7.52975-1.80064-4.58332-9.49416 7.69352-9.65777 9.9852-12.27683 7.85718-7.69352 9.65778-10.47629 4.74703-9.16669 6.22025-12.60417 4.09228-11.78584 5.07445-15.05965 1.96431-4.91075 2.29169-5.72917-1.63693-17.18762-2.12802-21.11624 .16357-18.98822-.81846-21.93466-1.96431-3.60119-.98218-6.22025 2.45544-4.91074 3.11019-5.72916 4.25599-11.45846 4.58337-11.13109z" fill="#003466"/>
<path d="m1659.8333-1033.1685c0,.018 0,.077.014.1944 0,.028.014.079.014.1112 .01-.2183-.018-.3456-.028-.3056zm5.6542.1112c-.014.01-.018.088-.056.25-.052.2297-.087.5435-.097.9169 .098-.638.1765-1.1874.153-1.1669zm-.153,1.1669c-.2927,1.9082-.976,5.8334-1.4031,7.488-.6287,2.4361-1.5666,5.1871-2.4312.2362-.8318-4.7639-1.5186-7.6184-1.6392-8.6688-.023.6009-.2523,1.8601-1.4309,2.6951-1.8861,1.336-4.1694,2.7542-5.1124,2.1255s.4829-1.5794-1.4031-1.7365-3.8585,1.3392-4.4872,1.8893-1.3385-.2394-1.417-2.1255-2.7483-.6992-4.0843,1.9727-1.8894-2.1232-1.8894-3.4592 0-1.8082-.625-.4723-2.1256-.7085-2.1256-.7085-.7793-.081-1.4864,1.0975-.8639.076-2.2783,1.0975 .069,1.028-2.6813,1.028-3.6123,1.2606-3.8481,1.8893-1.7303,3.7644-3.4592,3.5287-2.8959.2472-3.9176,1.3475-.6319,2.3494-1.8894,3.2925-1.8952,1.8922-2.6811,3.5425-1.7262,4.7164-1.0975,8.7243 2.3569,7.53556 2.2783,8.32145-1.8846,5.11043-1.806,6.68216 .7133,7.696.7918,10.21076-.3147,3.69263-.2362,4.7928 .2344,3.85224-.9446,6.20982-2.678,3.23067-.7919,4.95954 2.5149,1.17782 2.7507,4.79284c.2357,3.61493 1.0284,1.57104 1.2642,2.27831s-.083,1.95875-.083,1.95875 .7915,4.87389.5557,6.20987 .3887,3.7791 2.9035,4.01485 9.5095-.62989 11.0026-.70851 4.7095.47129 4.7095,2.51448 .01,3.22259-.028,2.98683c0,0 1.1114,5.7792-2.2228,5.55695s-8.2242-2.44506-9.5578-2.22281-8.891-1.77822-14.6702-.88908-11.7806.66683-16.8929-1.11138-14.0034-1.55593-18.0043-4.22323-9.5579-4.22328-12.892-7.33508-5.5569-3.77869-10.8915-5.55695-9.3356-1.33363-11.3361-2.88956-9.7801-2.6673-12.4474-3.77864-5.5569-1.55592-8.2242-2.8896-3.3341-2.00051-6.0015-4.00098-3.5564-1.55592-6.2237-2.44501-3.3341-2.22276-5.7791-2.44506c-2.4451-.22238-3.7787-.88908-7.5574-1.55592s-5.5569-2.44506-5.5569-2.44506-.8891,1.77822-3.7786,1.33372-7.1129-.66688-8.4465-1.77822-5.7677-.85889-7.1823.5557-1.1761,2.59034-1.0975,3.61194-.2458,1.42653-.6391,1.58372-1.2594.22974-1.1808,1.72262-.071,2.12591-.7779,2.36166-3.9245,4.32423-5.1818,6.446-4.092,6.98192-5.8209,8.94664-3.1508,4.48403-4.251,5.34849-8.3973,6.60763-9.4189,9.04382-2.2835,3.37872-2.5979,5.02897-3.1438,3.69074-.2361,6.36264 5.505,4.00264 7.6269,4.94567 9.2653,5.81894 11.5443,7.39063 3.8581.55109 4.251,3.22299-3.3079,13.67149-4.251,19.87984-1.8788,11.63141 1.5004,13.75327 11.9455,5.03499 16.2678,5.82078 7.2312,1.24638 8.7243,1.63932 16.2669,5.2661 21.0606,8.48814 24.1258,15.2462 26.5619,16.2678 25.2229,14.62499 27.4233,15.25364 12.2567,5.97572 14.3784,7.15455 23.8908,11.07926 24.2836,12.57242-.4735,25.22759-1.1808,27.50664-1.8763,15.07867-2.3478,18.37937-.5608,16.27538-.8752,18.00434 1.4222,16.81812 1.7365,21.76907 1.729,17.28604 2.7507,19.64362 3.3003,5.03121 2.5145,8.96047-.705,6.51602-1.3337,9.50229-1.8115,22.09153-2.3617,23.74178-2.6725,16.18335-2.9868,18.22664-2.0416,8.01386-1.806,9.58564-1.0279,4.87343-1.0279,5.97365-1.8095,4.56462 1.5698,6.52934 1.7365,2.04219 1.7365,2.04219-5.0307,1.88578-5.9737,2.51448-3.1421,1.17695-4.5566,1.5698-2.7562-.15576-3.3064.70852-.5453,2.03938.084,3.1396-.082,1.88578.6251,2.51453 1.6548,1.49288 2.5979,2.51448-.084,1.88937 2.1949,1.88937 2.3638.2279 3.5425.77789 1.6518.47758 3.4592.79191 2.3591,1.41619 6.2098.94463 7.9383-1.33882 11.2388-1.65315 14.693-1.09314 17.1292-1.25028 7.6931-.16771 8.5576-3.38969 .3152-4.31944.4723-6.36269 2.682-1.72193 3.1536-4.00093-.0004-4.72268-.2362-7.00169-.6386-8.87556-.403-10.68314-.3055-13.59944-.3055-15.64264-.2362-15.87375-.2362-18.30994-3.543-15.71712-3.7787-21.29677-2.4276-20.27163-3.0563-21.92193-2.0447-8.09483 1.806-16.26776 3.6927-19.34009 4.7928-20.51883-.2348-.62838.4724-2.51448 1.6444-2.03346 1.9588-2.34779-1.1776-6.05305.7085-6.44599 1.4174-.55335 1.6531-1.88937 3.1453-2.35146 3.6954-4.47327 .3823-2.20972 1.8755-2.68118 .4743-1.32968 1.6531-1.72267 1.6596-1.41905 2.6812-2.59783 4.3125-4.23835 5.0984-4.94562 2.4388-4.16424 4.1677-7.54345 2.1192-3.15086 3.8482-4.25108 1.4976-1.80762 2.5978-2.75061 2.7472-1.65039 3.3758-2.7507 2.0433-2.12112 2.7507-2.27836 1.8891.1576 4.4038-2.51443 3.8482-3.53223 6.5988-5.65418 5.4204-5.58668 6.835-6.76547 3.6188-4.08327 4.8762-6.12651 1.2583-2.03709 3.223-4.47328 10.1318-14.77234 12.7253-17.60138 1.0236-6.52392 1.1808-8.72436-5.8126-18.86388-6.3627-23.18613-12.9626-25.85206-13.6699-30.41011-9.2798-14.30598-11.7945-17.92091c-2.5147-3.61502-11.2421-10.22252-13.1281-14.30901s-5.2552-6.27672-4.8624-10.1274 1.024-4.24235 1.4171-4.55667 .3101-1.41864.153-2.36167 1.1729-.95134 1.9588.54177 .633.009-.153-2.19496 2.2054.15576 2.8341,1.80597 1.3354-.003-.2362-2.59783-1.0268-3.6147-.3198-2.51449 1.1848,1.10413.7918-.38871-.01-1.18361 1.2503-.0836 2.3641,1.89001 1.0281-.38917-.083-2.51848.153-2.12554 .0005.1599.2361-1.09751-1.9657-.85462 2.0422-2.34778 3.3804-.95539.7085-1.81989-1.4939-1.87977-.4724-1.72263 5.1145-.0809 6.2933-1.41702-2.5203,1.25818-5.8209.47234 5.4192-.86896 6.1265-2.59783-2.2745,1.66146-5.418,1.11138 6.3687-3.39025 7.1545-6.37652 .4654-.61832-3.5425.63904 2.8301-2.19988 3.223-5.02897-.1548.4621-3.8482,2.58391-1.3375-.63109-.9446-1.41702 1.9636-2.43275 2.0421-3.37577-1.0237-4.79445-1.1808-5.73748-.472-1.17539-.2362-3.37582-.078-4.00986.2362-6.44596 .7072-5.1874 0-5.7375 .2435,1.808-.7779,2.9868-.9455.01-1.4171-1.7226-.391.3832-1.5698-.1668-1.6579-1.716-1.7365-3.2091-3.2203-6.1416-4.3205-6.8489-2.9873-2.8968-3.223-4.3899c-.2045-1.2949-.9394-6.3146-.8752-8.7521zm-190.0873,62.34829c2.2005.15714 3.1468-.0138 1.8894,1.40315-1.2574,1.41459-1.5813,3.14645-.1668,4.40385s.1691,3.62233 1.5836,4.25103 2.9736.93159 5.9599,1.40306 10.2246.47238 10.2246.47238 1.5671.48268 2.6673,1.11138 1.5731,1.25033 3.4592,1.25033 .1635-1.4173 3.7787,1.09746c3.6149,2.51476 4.8699,2.67764 6.5988,3.30634s2.1947.94717 4.7094,2.36167 4.4099,2.20011 5.1957,2.51448 2.1887.61809 3.9177,1.87549 2.99,2.83998 4.8761,3.62586 4.4039,2.34779 4.4039,2.34779 3.3028.78313 3.9315,1.09746 2.3538.94551 3.1396,1.41702 13.041,5.51165 16.1844,6.14035 8.8039,3.45209 11.9473,4.7095 26.4054,11.93857 29.5488,12.25294 7.0747-2.04081 6.4459,1.41698-4.0859,7.70477-5.0289,9.9052-4.2426,6.599-2.0422,12.10008 4.8762,8.64095 4.8762,8.64095 2.3462,1.89263 1.4031,3.77869-2.9868,2.35785-2.9868,5.50131 .01,5.02272-1.7227,6.75164-9.5807-1.09121-14.7674-2.82013-14.6186-5.03145-16.9763-6.44595-3.615-2.35546-8.0158-4.08437-3.7758-3.30883-7.3906-4.72333c-3.6151-1.41454-6.7598-2.19308-11.475-3.76481s-5.6574-1.5766-7.5435-2.834-8.4895-6.28775-11.9473-8.48818-2.3587-1.4151-5.9737-2.98683c-3.6149-1.57173-19.9645-9.27103-23.4223-12.10012s-3.4545-7.38952-6.1264-9.43282-15.0843-8.16585-16.1845-9.26611-1.4213-2.04293-1.2641-2.51449c0,0-1.1011-1.73052-.4724-8.96043s2.9877-16.35257 3.4592-19.81036 1.1059-7.0616 3.3063-6.90446zm200.7288,95.41185c.079.0809 11.6103,11.94624 10.044,17.11521-1.5717,5.18666-5.1938,8.49034-6.7655,12.4196s-6.4449,14.61713-8.4881,16.03167-5.3406,4.09191-6.1265,5.82079-1.4127,1.72845-1.5698-2.98678 1.4186-4.72365 2.3617-10.22473 1.719-15.39502 2.3477-16.80957 4.5591-5.3523 5.9737-10.22468c1.3703-4.72006 2.4427-10.76819 2.2228-11.14151z" fill="#003466"/>
<path d="m2961.5995-1016.7729c-1.46-.001-3.2035.037-5.3332.088-11.3577.2839-13.6281,4.1077-18.5972,8.9347s-4.9669,12.64247-5.9606,16.04986-.8507,4.39677-4.1161,11.92134-5.3948,18.88217-7.2405,23.9932-2.982,11.7835-2.698,16.75255-.7093,3.69796-4.5426,3.83993-19.3109.70342-20.7306,1.1294-5.9585,1.84613-11.9212,2.69795-10.3664-.43099-23.0019,1.98268-16.753.99385-21.722,0-8.3806-7.09762-12.0719-9.08526-14.3415-5.82166-23.0019-7.66728-35.1988-22.14607-37.4705-23.13992-8.6619-2.54563-13.0631-3.96537-2.7011,1.56071-4.4047,1.84466-3.2649-.28533-4.5426-.85334-.8588-.14611-1.5687-4.83125-3.3958-1.98122-5.3833-1.12939-.7176,4.2479-1.9953,3.11207-2.559-3.11382-4.4045-1.69404-1.1245,1.56291-3.1122,3.12462-.7174,2.12912-1.9952,4.54266 .5721,2.12839-2.4094,4.11599-2.2736,3.68835-3.5514,5.53398-4.1221,4.11649-5.2578,6.81398-2.9771,16.18763-4.6806,18.45918-6.8099,7.80931-9.2234,14.90794 3.2591,6.52732 6.0987,10.07663 8.9434,6.39247 16.3259,9.37392 14.9045,16.88616 17.7439,21.5713 17.7565,24.57045 17.7565,24.57045 2.9735,1.98466.2762,5.53402-9.0881,26.1277-5.8226,29.25108 27.5508,9.50804 40.8963,16.89062 18.5978,10.21591 21.2952,13.33933 15.8935,5.40262 24.6959,9.23584 4.8341,2.55363 1.5687,3.68937-10.0834,2.69152-21.1572,3.82734-18.8832,7.387-22.1486,9.80058-35.9197,8.08678-38.9011,8.79667-6.2391.71357-12.486,2.13326-21.5799,4.4022-28.9624,5.39604-23.2888-1.84126-24.7085-4.68073-14.0562-15.61998-14.908-16.18789-.9899-2.27423-.1374-3.97792 1.8406-6.24832 1.9825-8.09395-.9936-2.70016 0-3.97796-.136-3.96684-1.1292-4.81876-1.8508-.99481-2.9867-5.3959-5.1103.42088-6.8139,1.98269-3.5533,9.9386-7.1025,17.17921-.1416,7.81422.4264,12.92521 8.5191,15.04127 7.6672,21.99797-3.4001,15.90932-.7027,24.14378 13.3449,1.98985 19.0238,1.28 11.2052-5.83052 20.2915-5.54656 46.5742,3.2666 49.9815,3.12462 5.398-.13601 8.9473,1.14194 57.0698-6.5293 68.0016-6.38728 17.7499-1.70741 28.3979-2.1333 31.2305-1.70424 41.3104-2.698 14.3355-.85012 21.86-1.41799 16.8953.13969 31.6603-1.28 24.7029-14.05676 26.2647-15.33452 2.4721-6.27442 4.2792-7.27828 1.0037-4.41723 2.0076-6.2242 1.4055-4.81872 1.4055-9.23589 1.2047-2.40936 3.0117-9.83821-1.7505-7.17367-.6149-16.82791 0-11.35659 0-11.35659c5.1111-1.56167 1.5575-6.24433 2.4094-8.23198s-1.1382-5.53595.9913-9.08527 1.8441-3.70214 1.4182-8.67119 1.2781-12.05592 2.6979-14.89534 2.7033-2.98563 3.4132-4.8313-1.1428-.99307.7027-6.81395 .7098-15.76568 2.2713-18.32115 1.8494-2.55584 2.1334-4.96933-2.698-3.96514-2.698-6.2367 3.2615-8.95418 7.3787-10.51585 9.2329.70962 22.0104,2.27129 25.5564-2.2666 32.0872-1.98269 14.6227-5.96382 19.0239-5.39595 6.2458-.7121 9.0852-1.27996 9.7952-1.70273 16.3261-1.84471 36.2035-7.51813 38.9011-8.37 5.3978-.99527 8.9472-.85329 11.4952-1.1356 14.1926-2.27133 3.8294-1.5607 7.3787-1.84471 6.54-2.13771 7.8178-4.69323-2.4232-.84787-5.5465-.13784-4.5331.28855-6.2368.28855 2.8376-1.56539 3.6894-2.13325 9.0782-4.12293 9.7879-5.6846-.9913-1.41803-.9913-1.41803 2.556-2.26637 2.6981-4.25402-2.1207-.42639-2.1207-.42639 .7098-2.70416 0-3.83994-4.4012-.42593-7.2407,0-7.955,2.13009-9.8007,2.69796-4.8238.70989-7.8052,0 1.7049-3.69226 3.1247-5.39591 4.3896-4.96046 5.3832-7.09004-.5589-5.96956-2.1206-3.83993-2.6947,4.68927-3.2626,4.83125-2.4224,1.56443-5.1199,3.97792-4.119,3.54789-5.8226,6.38731-7.0967,9.2256-10.93,10.50336-8.088,1.56612-19.162,2.55992-16.6106-2.83823-23.9932-4.11599-10.5135-.28257-16.4765,3.12467-27.959-.43466-30.6566-.15071-12.2096.57058-21.7218-3.26269-33.0829-1.14194-35.6386-1.14194-3.129.43191-5.6844,1.14194-1.985-1.99128-3.2628-2.1333-2.8414-1.13082-3.5513-1.98269 .1415-1.55822 1.4181-2.83598 4.1275-4.5518 5.9732-7.39127-.1429-5.82235-.4264-8.0939-.4337-4.82391.2762-7.80531 .2872-5.39108-.5648-7.37868-1.1287-3.54881-.7027-4.54266 1.9867-5.39816 1.8448-6.67591 .4195-2.41207 1.1292-6.38732 .4245-7.66953-3.1245-16.18791-14.9075-10.5023-19.4507-12.3479c-3.6912-1.4997-4.6653-2.0647-10.9927-2.0706zm-220.9206,59.23005c.6715.0928.3891,5.84275 1.6312,6.58811 1.4199.85182-.2825,3.12292 3.1247,4.54266s16.4765,0 16.4765,0 2.2631-1.42318 7.0901,2.83602 40.037,32.94316 53.3825,36.91841 15.3355,5.10386 20.7304,7.94333 29.2518,5.67844 36.9185,4.54266 17.8879-3.97621 21.2952-5.39595 7.0979-.28258 6.8139.85329c-1.4196,1.13578-1.7003,15.05189-2.836,18.45923s-5.6861,22.99839-6.5379,25.83787 .5633,6.24731-.2886,9.93856-1.131,8.23988.2886,7.95592 .8595-1.14069 1.9952,1.98273 4.2491,3.12784 6.2368,2.55993 2.2792-3.70067 1.9952-.57724 1.7003,3.41326 2.8361,3.41326 1.4211.57081.8534,1.70664-1.1357,4.25231-2.2715,5.672-5.6845,5.68459-5.6845,5.68459-5.6702-1.14317-9.3615-4.26655-30.6654-15.3262-35.7764-20.15332-11.0786-6.53444-14.7699-9.37387-16.1841-6.52511-21.2951-8.79667-8.8027-4.25847-12.21-6.81403-18.1765-10.23162-21.5838-12.78713-40.8864-28.6761-47.1331-37.19451-9.9389-8.52085-7.6674-20.73051 4.2603-19.01901 5.3961-21.00661c.1415-.24858.2555-.35242.351-.33909z" fill="#003466" stroke="#000" stroke-width=".40156"/>
<path d="m2870.1554-1765.4473c-.6046-.028-.8066.3727-.4364,1.4835 .9873,2.9618.6508,5.2774 1.309,6.9228s1.6679,8.0425 1.8325,10.6751-1.3289,16.6407-1.658,18.1216-.6573,12.488.4945,17.918 1.9697,12.4996 2.7924,19.0814 1.3189,12.5011 1.4835,14.3111-1.4661,31.7639-2.6179,37.5229-4.7721,27.9692-5.7594,31.5892-3.9484,9.7278-5.2648,11.3732-9.0719,13.3232-7.0974,19.5759 7.4182,14.6328 7.9118,15.6201 12.3457,29.4699 13.9911,31.9381 6.5864,12.3192 8.2319,15.4455 13.1501,17.9405 14.631,19.7505 4.453,6.9171 5.9339,9.2207 1.1543,1.1561 1.4834,2.4725-.8461,4.2676-2.327,5.0903-5.0903,1.338-5.0903,1.338-.9724-9.8772-2.6179-8.2318-1.338,9.1917-1.338,9.1917-5.9082,1.6472-7.8827.989-15.1364-6.5846-15.7946,9.5407 16.4345-1.6289 16.4345-1.6289l-1.3089,7.2428c0,0-13.8184,13.1636-14.8056,16.7835s-8.5444,13.1602-9.8607,14.8056-4.6175,8.566-5.9339,11.1987-2.6396,6.5846-3.9559,7.2428 .989,10.5297.989,10.5297-10.5006-3.2287-12.3622-3.2287-27.9241-10.7042-29.553-10.7042-24.4335-7.9119-25.3643-8.6099-10.7043-1.3963-16.2891-4.1887-7.2137-2.5597-8.6099-5.3521-5.3521-4.4213-8.3772-8.6099-3.9559-1.8616-3.0251-6.7483 6.2829-10.0061 6.5156-11.6351 1.8082-6.2703-.989-4.6249-4.9449,6.4284-4.9449,6.4284 1.3155.5036-.4945.1746-3.9633-3.8039-2.6469-5.6139 3.128-9.3728.9889-7.5628-4.2567,3.9577-4.4213,4.9449-1.4834,1.1344-1.4834,1.1344-1.1445-.8096-1.309-3.6068-2.1542-6.0916-3.1414-1.978-1.1636,7.2537-1.1636,7.9118-.9598,4.2759-.9598,4.2759-2.327-.6756-2.327,1.1344v15.3001c0,0 2.4676,2.1485 5.2648,5.4394s12.1812,16.2807 13.9911,17.1034 3.1284,1.1561 6.7484,2.4725 35.8701,13.9946 38.8318,15.9691 2.3025,5.4345 10.5298,8.2317 17.4493,5.9248 21.2339,6.2539 26.3345,11.0265 32.2581,23.5318 1.3078,23.6694 11.8386,30.2511 12.4968,12.5327 11.8387,15.8236-5.9122,23.0328-4.5959,31.5891 5.9299,36.85 9.2208,40.1409 24.3452.6507 34.876,1.3089 29.6208,1.309 40.8098,1.309 7.8851-.6582 20.3905,0 13.0603,3.8395 12.9439,1.8616-1.978-3.2579 1.0471-3.6069 12.2168,2.6761 14.8928,2.2107 3.8396-.9309 3.6069-1.629 2.6761-1.3961.1163-2.0943-4.4213-.8144-7.3301-1.5125-3.3742-2.6761-6.7483-2.9088-14.3111-2.327-17.9179-3.0251-15.242-3.1414-19.1978-3.9559-4.0723.1163-7.2138-.1162-25.4807-2.9088-29.4366-3.8396-19.6632-3.3742-21.8738-3.4905-1.8616-28.0404-1.6289-29.7857 3.0251-11.1696 4.305-11.7514 1.5125,3.2579 1.7452,3.9559 2.6761,3.7233 2.9087,5.4685-.4654,5.1194-.2329,7.0974-.9308,5.7011 2.327,5.3521 6.981-1.6289 8.1445-1.1635 3.3742,3.1415 5.7011,4.305 2.6761,4.1886 4.305,4.654 10.2388-3.4906 10.8206-3.8396 1.0471-1.3962 4.8867-.1162 4.0722,2.4433 9.1917.1162 7.0973-3.7232 11.2859-3.3742 8.959-2.0942 10.5879-4.5376 6.1666-19.8959 6.632-23.3864 5.2357-16.5217 1.8616-22.921-2.7924-8.4936-2.5597-11.7514-4.5377-9.1917-7.6791-10.9369-6.632-3.2578-17.5689-5.0031-11.6351.4654-13.4967,1.7453-4.7703,2.676-8.3772,2.5597-9.0753-.5818-10.8205-1.978-7.3301-9.1917-9.1917-11.635-1.8616-25.1317-1.3962-29.902 1.2798-19.4305 1.2798-19.4305-1.5125.9308 3.1415-2.9088 7.5627-7.0973 10.9369-6.8646 12.3331,2.4433 23.6191,0 19.4305-8.2609 22.8047-10.937 9.1916-6.9809 17.8015-7.5627 17.5689.9308 23.6192.2329 17.8016-2.7924 20.943-3.6068 11.1696-.6982 12.5658.5817-5.9338,12.9149-5.4684,31.6473 2.4433,37.1157 2.4433,39.6754 1.6289,17.8016-1.8616,20.594-8.7262,5.1195-9.4243,8.0282-1.3962,7.5628 2.2106,12.3331 9.4244,11.0533 13.0312,17.918 6.8647,8.959 6.632,11.635 .4654,5.9339 1.6289,6.8647-2.6761,2.7923-1.1635,3.4905 2.4434,1.7452 2.7924,2.676 1.2798,1.7453 1.7452,1.8616c-.2848-.0005-2.087-.058 0,2.327 2.4434,2.7925 5.8176,5.4685 7.7955,4.5377s.4654-2.5597.3492-5.2357 1.1635-8.8427 1.1635-11.1697 2.7924-20.3613 1.6289-27.3423-.9308-9.1917-.9308-11.8677-.9308-23.2701-.5817-26.4115 2.9087-24.6663 3.9559-29.6693 4.4213-23.1538 5.5848-27.8078 6.981-20.2449 7.6791-27.4586 4.5377-19.0815-2.327-25.248-7.9118-9.5408-18.7324-12.3332-52.1249-8.1445-67.0177-7.6791-32.8108,1.0472-37.2321-.8145-11.1697-8.0281-17.4526-16.8707-15.2418-16.8708-18.1506-20.5941-20.245-26.1788-27.9241-33.0434-15.8236-11.8678-13.4966-22.6883 7.4464-23.5028 7.7955-26.5279-.3492-23.1537-1.6289-26.0624-2.4434-19.896-3.0251-25.8298-.6982-23.2701 3.3741-27.8078 12.1129-9.1862 6.4575-13.5838c0,0-10.3812-9.0539-14.1657-13.4967s-7.4082-11.3643-7.7373-17.4525-2.3113-9.2233-4.4504-10.7042-2.6147-7.8953-6.3993-9.5408c-2.3653-1.0284-4.49-2.2497-5.4975-2.2979zm10.1806,293.8135c2.1522-.059 4.0866.461 4.2177.4945-.044.3818 2.5306,6.4866-2.2688,6.0503-5.1194-.4654-6.5157,6.981-7.4465-.9308-.5235-4.4504 2.6343-5.5352 5.4976-5.614z" fill="#003466" stroke="#000" stroke-width=".9308"/>
<path d="m2931.7584-2383.1695c-.2375,0-.4782.096-.7413.3349-1.0523.9567-1.148,5.1658-2.2003,7.4617s-4.7831,12.6274-6.6963,17.2192-4.6875,15.593-6.6007,18.1759-4.4961,11.0968-5.3571,11.6708-15.7843,23.7243-17.2192,35.9691c-1.435,12.2448-1.5307,21.0457-2.2003,23.8199s-2.3916,22.4807-2.1046,26.9768 1.0523,22.0024.861,25.3505 .096,4.3049 1.1479,6.6008 2.1046,4.1134 2.009,11.5751-.1912,20.7588.8609,25.4462 1.5306,12.4361 2.1046,16.7409 .2871,5.4528.096,6.8877c-.1912,1.435-.7653,6.8877-1.3393,8.801s-1.2436,5.7397-1.4349,6.3137-.861,6.2181-2.5829,8.8009-3.2525,5.2615-3.5395,6.4094-4.1135,11.4795-5.4528,13.5841-1.3393,1.0523-3.4438,2.9655-38.839,21.237-49.0748,29.177-29.3684,20.4718-29.3684,29.751-5.7397,13.4884 4.2092,16.454 22.385,4.7831 30.5163,3.2525 28.9857-6.1224 33.6731-7.2704 14.0624.2872 16.2626-1.1479c2.2003-1.4349 6.3138-.9566 8.4183-1.1479s7.366-.2872 7.7487-.096 8.1313,1.6262 9.3749,9.7575 3.8265,15.306 2.7742,18.6542 .1911,5.6441-1.5306,8.0356-1.6262,3.9222.2872,4.4962 2.3915.5739 2.7742,3.7308 2.1046,15.2103 2.0089,18.4628-1.8176,17.1236-3.0612,22.4807-.096,14.2537-.096,14.9233 .096,15.306-.7653,18.4629-1.7219,18.0802-3.7308,21.9067-1.0523,4.9744-1.3393,6.4093c-.2872,1.435-.1911,7.8444-2.1046,9.1836s-3.5395,3.7309-2.7742,5.3572 2.4872,2.0088 4.0178,2.2002 8.0357,2.1045 10.2359,2.5829 6.4094,1.2436 7.366.1911 .861-1.148-.3827-4.4961-1.9133-6.1224-1.0523-9.6619 1.0523-7.5573 2.2002-12.9145 4.2091-15.306 5.3571-18.7498 3.4439-4.2091 3.2525-6.792 6.5051-20.6631 6.5051-25.1592 2.2002-23.4373 1.0523-27.2638 3.7308-20.1848 4.1134-22.672 14.2538-43.6221 15.7843-48.2138 4.1135-20.2805 3.9222-27.5508 .3827-22.0024.2872-24.2026-1.5306-13.7754-2.1046-18.2715-.3828-8.3226-.3828-10.5229-.4783-7.5573-.2871-8.6096-.7653-5.1658-.096-7.079 1.7219-14.445 2.3916-17.5062 2.6785-17.6976 3.7308-21.4284 3.2525-6.6964 3.5395-13.1058 .861-9.6619 1.0523-10.8098 4.6874-7.1747 4.4005-10.9055-1.2436-10.1403-1.3393-11.3839 .3828-23.0546-.9566-28.89-4.5918-20.9501-5.3571-25.9245-2.2002-13.8711-2.7742-14.5407c0,0-10.7142-25.6375-16.6453-35.0125-5.9311-9.3749-10.1402-25.5418-11.1925-30.9946s-3.0612-13.7753-3.2525-17.4105-.3827-7.0791-1.5306-6.5051c-.861.4306-1.5112-.3349-2.2242-.3349zm.1912,14.6124c.3202-.023.6098.2812.7892,1.0284 .574,2.3916-1.2436,7.8443-1.2436,7.8443-.096-.096-.574-2.8699-.861-5.4527-.1971-1.7758.6112-3.3737 1.3154-3.42zm-1.5784,23.3655c.032,0 .06.014.072.048 .1911.574-.3828,2.2003 2.0089,5.4528s6.1224,10.7142 6.8877,13.2014 6.9833,18.1759 7.1746,21.2371 6.9834,20.5674 7.4617,23.3416 .096,4.4005-1.2436,3.5395-5.5484-6.9833-6.5051-7.8443-6.1223,1.148-11.0011-1.7219-8.7053-1.8176-11.8622-.861-9.2792,6.4094-11.0011,11.0969-4.1135,9.5662-4.1135,9.5662c-.096.1911-1.148-1.9133-1.6263-3.3482s0-8.4183.3828-10.4272-.096-3.6352 1.2436-6.6007 4.2092-16.7409 5.0701-19.4195 7.8443-25.1592 8.9923-27.8377 2.6785-3.5395 3.9221-4.4005c1.1659-.8071 3.6704-4.9771 4.1374-5.0223zm-21.6915,82.1262c.454-.098 1.5306,2.1883 1.8655,4.1135 .3827,2.2002-.3828,3.5395.3827,6.1224s1.3392,7.94 2.3915,7.4617 .7653.3827.6697,2.8699 .574,1.7219 2.3915,3.9221 2.6786,4.2092 3.7309,7.5573 .3827,3.4439-1.5306,6.3137-2.2959,4.2092-2.2959,4.5919c-.096,0-2.9656-4.1135-3.0612-4.5919s-2.8699-6.8876-2.9655-7.4616-2.2003-3.7308-3.4439-8.227-.1911-8.9922 0-12.4361 1.4349-9.0879 1.7219-10.0445c.037-.1195.079-.1774.1434-.1912zm45.7266,3.6831c.075-.0006.1613.018.2394.048 1.2436.4783.9566,4.2091.9566,6.6007s2.2003,14.3493 1.722,16.5496-2.0089,2.4872-3.4439,5.644c-1.4349,3.1569-4.8787,11.3839-4.8787,11.3839 .096.096-.7654-.4783-1.722-1.0523s-4.3048-8.4183-4.3048-8.4183 .6697-4.0179.7653-5.5484 3.5395-3.7309 4.4005-4.8788 1.0523-3.5395 1.6263-5.0701 0-2.8699 0-3.8265 1.0522-1.8176 1.0522-2.8699 1.0523-3.2525 1.3393-4.3048c.2692-.9865 1.1172-4.2479 2.2481-4.257zm-41.0152,194.2664c.4007.059.8998.8908 2.5111,2.9416 4.2092,5.3571 1.5306,8.4183 1.5306,8.4183l-6.1224.7653c0,0-11.4794,2.2959-20.663,2.6785s-6.5051-3.0612-4.9745-4.9744 14.9234-3.0612 22.1937-6.1224c4.0896-1.722 4.7786-3.4593 5.3571-3.683 .056-.023.1103-.032.1672-.023z" fill="#003466" stroke="#000" stroke-width=".7653"/>
<path d="m2282.5909-2202.0651c-4.5296,0-15.6191,1.4057-21.8668,1.0933s-19.5238-.4685-24.3658.9372-34.8305,29.0515-39.6725,31.863-15.1505,12.0267-16.7124,13.12-29.6763,27.3334-33.2687,30.1449-43.8897,21.8667-54.823,32.8001-13.2763,14.5257-15.7753,15.9315-27.9582,26.5524-40.9221,34.362-11.2457,6.56-14.0571,8.7467-5.7791,2.6552-2.9677,8.1219 3.9048,13.4324 11.8705,9.9962 10.3086-10.1524 15.7753-15.7753 16.5563-13.4324 18.8991-14.9943 58.4154-37.3297 64.8193-40.922 10.4648-.3125 14.9943-4.061 15.3067-11.4019 19.5239-14.5258 39.8287-19.5238 44.0459-21.3981 11.5581-8.4343 11.8705-4.3734-1.8743,7.341-3.5924,10.7772 .1562,6.56-3.28,7.1848-20.9296,2.4991-27.6458,6.0914-14.0572,6.2477-15.3067,9.8401-3.4362,16.2438-2.6553,19.9924 2.0305,29.2077 2.9676,34.9868 2.6553,10.1524.1562,12.4953-4.3733,4.2171-2.3428,6.56 2.0304,5.1543 9.059,5.6229 14.2134-.1562 16.5563-3.4362 .9371-6.4039-1.7181-8.4343-5.9353-1.5619-6.2476-7.8096 1.718-29.5201 2.499-33.8934 2.0305-11.402 3.28-13.5887 14.3696-1.718 15.7753-3.28 9.8401,4.2172 15.9315,1.8743 10.3086-4.2171 14.5258-3.5923 11.2457,2.6552 11.4019,6.0914 1.5619,4.5295-1.0934,7.4971-5.6228,5.9353-6.2476,7.1848-2.0305,1.2496-2.0305,3.9048 1.4057,5.1543 1.4057,8.5905-.3124,8.9029-.9371,9.8401-.781,4.8419-.4686,6.56-1.4057,2.8114 7.4972,9.6838 21.242,7.4972 24.9906,5.6229 14.0571-9.2153 14.9943-12.1829-2.1867-12.1829-1.0934-15.6191 .9372-10.3086-1.8742-16.0877-3.5924-11.8705-3.1238-14.3695-.781-7.9658 4.8419-8.5905 8.7467-2.0305 17.0248,2.499 18.1181,1.4057 19.5238,1.2495 6.0915,2.3429 9.3715,3.4362 7.1848-1.7181 8.1219,2.4991-.4685,8.9029-1.2495,13.7448-3.5924,27.021-4.6857,30.301-4.061,6.0915-7.0286,6.8725-2.6553,2.6552-7.8096,1.8743-9.0591.9371-7.8095,2.8114 8.1219,5.6228 12.1829,6.2476 15.9315,1.5619 19.0553,1.0934 3.5924-.3125 5.4667-5.3105 1.7181-13.1201 3.28-17.6496 4.3733-17.8058 5.7791-22.6477 5.3104-23.2725 3.9047-28.2706-.3124-5.4667-7.4972-9.9962-16.4-6.7162-22.96-9.0591-14.3696-3.4362-14.0572-9.84-2.1867-9.8401 2.499-6.56 10.1524,10.1524 18.5868,12.8076 47.1697,26.2401 53.1049,31.2382 24.9906,19.2115 28.2706,20.6172 37.1734,24.9906 39.0477,26.7087 .6248,2.0305 1.2496,6.56 2.6552,7.0286 5.779,8.9029 12.3391,7.1848 13.2763,11.7143 7.9657,3.1239 10.7771,1.0934 .4686-14.3696-.7809-18.2744-14.3696-11.8705-16.7124-14.8381-37.1735-42.1716-50.9183-52.324-20.6172-14.2134-22.8039-16.5562-28.8953-21.242-34.6744-29.5202-19.3677-19.8362-20.9296-21.7105-18.8991-12.1829-21.5543-18.8991-15.6191-21.3982-38.423-21.3982z" fill="#003466"/>
</g>
</svg>
